<?xml version="1.0" encoding="UTF-8" standalone="no"?>
<svg
   xmlns:dc="http://purl.org/dc/elements/1.1/"
   xmlns:cc="http://creativecommons.org/ns#"
   xmlns:rdf="http://www.w3.org/1999/02/22-rdf-syntax-ns#"
   xmlns:svg="http://www.w3.org/2000/svg"
   xmlns="http://www.w3.org/2000/svg"
   xmlns:sodipodi="http://sodipodi.sourceforge.net/DTD/sodipodi-0.dtd"
   xmlns:inkscape="http://www.inkscape.org/namespaces/inkscape"
   width="210mm"
   height="297mm"
   viewBox="0 0 210 297"
   version="1.1"
   id="svg8"
   inkscape:version="1.0beta2 (2b71d25, 2019-12-03)"
   sodipodi:docname="logo_fritz2_ohne.svg">
  <defs
     id="defs2" />
  <sodipodi:namedview
     id="base"
     pagecolor="#ffffff"
     bordercolor="#666666"
     borderopacity="1.0"
     inkscape:pageopacity="0.0"
     inkscape:pageshadow="2"
     inkscape:zoom="1.1316971"
     inkscape:cx="418.08199"
     inkscape:cy="690.46298"
     inkscape:document-units="mm"
     inkscape:current-layer="layer1"
     inkscape:document-rotation="0"
     showgrid="false"
     inkscape:window-width="1680"
     inkscape:window-height="1050"
     inkscape:window-x="0"
     inkscape:window-y="0"
     inkscape:window-maximized="0" />
  <metadata
     id="metadata5">
    <rdf:RDF>
      <cc:Work
         rdf:about="">
        <dc:format>image/svg+xml</dc:format>
        <dc:type
           rdf:resource="http://purl.org/dc/dcmitype/StillImage" />
        <dc:title></dc:title>
      </cc:Work>
    </rdf:RDF>
  </metadata>
  <g
     inkscape:label="Ebene 1"
     inkscape:groupmode="layer"
     id="layer1">
    <path
       inkscape:connector-curvature="0"
       id="path1929"
       d="m 48.238174,117.98553 c 0.215212,-0.50968 0.708967,-0.76186 1.07996,-1.16995 0.07256,-0.0798 1.057347,-1.10257 1.079958,-1.07996 0.125495,0.12549 -0.398677,2.7512 -0.359987,2.78989 0.04243,0.0424 0.142513,0.0469 0.179994,0 0.2355,-0.29437 0.357737,-0.62773 0.629975,-0.89996 0.389985,-0.38999 0.779971,-0.77997 1.169956,-1.16996 0.519713,-0.51971 1.054343,-0.97508 1.529942,-1.52994 0.03358,-0.0392 0.337998,-0.38198 0.449985,-0.26999 0.248283,0.24828 -0.229581,0.66395 -0.359987,0.98996 -0.334989,0.83748 -0.722847,1.7243 -0.899967,2.6099 -0.168738,0.84369 0.325549,0.23166 0.539981,-0.09 0.01664,-0.025 0,-0.06 0,-0.09 0.149995,-0.14999 0.314184,-0.28702 0.449982,-0.44998 0.999871,-1.19985 1.868297,-2.49434 2.879891,-3.68986 0.378966,-0.44787 0.595937,-0.59594 0.989963,-0.98996 0.131728,-0.13173 0.274238,-0.36424 0.359987,-0.44999 0.10606,-0.10606 0.427066,-0.40415 0.359986,-0.26999 -0.844124,1.68825 -1.702802,3.3459 -2.339911,5.12981 -0.137023,0.38366 -0.237453,0.53236 -0.359987,0.89996 -0.116829,0.35049 -0.09,0.008 -0.09,0.35999 -0.03,0.03 -0.108969,0.12794 -0.09,0.09 0.04837,-0.0968 0.122666,-0.17827 0.179993,-0.26999 0.383791,-0.61407 0.886748,-0.97411 1.349949,-1.52994 0.519735,-0.62369 0.938522,-1.34175 1.439945,-1.97993 1.221639,-1.55482 2.303113,-3.16868 3.329874,-4.85982 0.560458,-0.9231 1.093282,-1.89917 1.709935,-2.78989 0.266055,-0.3843 0.596213,-0.63558 0.899967,-0.98996 0.07039,-0.0821 0.304192,-0.28261 0.269989,-0.18 -0.02844,0.0853 -0.44065,0.61265 -0.449982,0.62998 -0.40727,0.75636 -0.735642,1.5529 -1.07996,2.33991 -0.270209,0.61762 -0.447509,1.2733 -0.719974,1.88993 -0.629187,1.42395 -1.234464,2.86316 -1.979925,4.22984 -0.481851,0.8834 -0.974889,1.67225 -1.349949,2.6099 -0.122343,0.30586 -0.101348,0.67539 -0.179993,0.98996 -0.06508,0.26032 -0.179991,0.29429 -0.179991,0.53998 0,0.03 -0.0073,-0.0609 0,-0.09 0.03,-0.12 0.02138,-0.25707 0.09,-0.35999 0.439319,-0.65898 1.000627,-1.23095 1.439944,-1.88993 0.839809,-1.25971 1.356249,-2.30227 2.069923,-3.59986 0.380169,-0.69122 0.938625,-1.30418 1.349949,-1.97993 0.868,-1.426 1.625034,-2.96564 2.6099,-4.31983 0.290793,-0.39984 0.544436,-0.81443 0.899967,-1.16996 0.119994,-0.11999 0.23999,-0.23999 0.359987,-0.35999 0.03,-0.03 0.119994,-0.11999 0.09,-0.09 -0.802164,0.80216 -0.993571,2.05554 -1.439944,3.05988 -0.229571,0.51654 -0.510056,1.00515 -0.719974,1.52994 -0.08741,0.21853 -0.121126,0.53998 -0.08999,0.53998 0.347951,0 0.641688,-0.48039 0.809969,-0.62997 0.369908,-0.32881 0.836771,-0.62346 1.169955,-0.98997 0.401728,-0.4419 0.772285,-0.98546 1.169956,-1.43994 0.310645,-0.35502 0.564573,-0.74457 0.899965,-1.07996 0.03654,-0.0365 0.441668,-0.51503 0.359986,-0.26999 -0.0721,0.21631 -0.891405,1.35747 -0.989962,1.52994 -0.09984,0.17473 -0.179993,0.35999 -0.269989,0.53998 -0.119996,0.23999 -0.256789,0.4723 -0.359987,0.71997 -0.665347,1.59684 0.507379,0.002 0.809969,-0.26998 0.237009,-0.21331 1.117611,-0.86508 1.439945,-1.07997 0.326908,-0.21793 0.06364,0.0264 0.269991,-0.17999 0.03,-0.03 0.06,-0.11999 0.09,-0.09 0.03381,0.0338 -0.603996,2.26717 -0.629976,2.33991 -0.06768,0.18951 -0.195252,0.35313 -0.269989,0.53998 -0.08169,0.20422 -0.188301,0.51574 -0.269991,0.71997 -0.01114,0.0279 -0.02683,0.10341 0,0.09 0.438433,-0.21922 1.113753,-1.20375 1.439947,-1.52995 0.120309,-0.1203 0.436319,-0.25632 0.539978,-0.35998 0.149995,-0.15 0.299989,-0.59998 0.449984,-0.44998 0.154427,0.15442 -0.122531,0.41927 -0.179993,0.62997 -0.211167,0.77427 -0.407625,1.54578 -0.53998,2.33991 -0.03487,0.20924 -0.04398,0.42291 -0.09,0.62998 -0.02058,0.0926 -0.174847,0.31241 -0.09,0.26999 0.07862,-0.0393 0.938001,-0.84801 0.989963,-0.89997 0.17549,-0.17549 0.36449,-0.45448 0.53998,-0.62997 0.254397,-0.2544 0.512215,-0.65774 0.53998,-0.62998 0.04242,0.0424 0.02363,0.12485 0,0.17999 -0.06891,0.16078 -0.211159,0.28525 -0.269991,0.44999 -0.185008,0.51802 -0.359984,1.2425 -0.359984,1.79993 0,0.0383 -0.02872,0.43562 0,0.44998 0.176199,0.0881 1.751319,-1.48133 1.979924,-1.70993 0.057,-0.057 0.543544,-0.55781 0.539978,-0.53998 -0.216585,1.08293 -1.169956,1.48507 -1.169956,2.78989 0,0.06 -0.03328,0.13007 0,0.17999 0.163378,0.24507 0.446056,-0.0592 0.53998,-0.17999 0.158435,-0.2037 0.288774,-0.42846 0.449985,-0.62998 0.516035,-0.64504 1.118687,-1.16577 1.799931,-1.61993 0.01498,-0.01 0.523973,-0.286 0.539981,-0.26999 0.02929,0.0293 -0.24229,0.39899 -0.449985,0.71997 -0.555001,0.85773 -1.534359,2.18642 -1.709936,3.23987 -0.0168,0.10089 -0.08469,0.72263 0.09,0.80998 0.375274,0.18763 0.736547,-0.70418 0.809969,-0.89997 0.495308,-1.32082 1.559528,-2.1895 2.519905,-3.14988 0.186205,-0.18621 -0.284549,0.007 0.09,-0.17999 0.408691,-0.20435 -0.335635,0.85126 -0.539978,1.25995 -0.461473,0.92294 -0.88588,1.88563 -1.169955,2.87989 -0.109726,0.38403 -0.09,0.53789 -0.09,0.89997 0,0.09 -0.08538,0.29844 0,0.26998 0.487333,-0.16244 0.779248,-0.99456 1.07996,-1.34994 0.51911,-0.6135 1.102712,-1.17926 1.619938,-1.79994 0.07966,-0.0956 0.490373,-0.80997 0.719974,-0.80997 0.123687,0 -0.03239,0.25054 -0.09,0.35999 -0.25649,0.48733 -0.523632,0.96954 -0.809969,1.43995 -0.467345,0.76777 -1.125308,1.53134 -1.34995,2.42991 -0.05152,0.2061 -0.136924,0.86809 0.269992,0.80996 0.733078,-0.10472 0.938601,-1.20496 1.259951,-1.70993 0.699312,-1.09892 -0.0042,0.21955 0.809969,-0.89997 0.118364,-0.16275 0.170148,-0.36525 0.269991,-0.53998 0.179734,-0.31453 0.495221,-0.67521 0.719971,-0.89996 0.02122,-0.0212 0.06878,0.0212 0.09,0 0.02122,-0.0212 -0.02122,-0.0688 0,-0.09 0.261448,-0.26145 -0.237193,2.23312 -0.269991,2.42991 -0.03345,0.20072 0,0.42488 0,0.62997 0,0.06 -0.05366,0.20683 0,0.18 0.4909,-0.24545 1.353865,-2.06993 1.799934,-2.06993 0.191405,0 -0.746218,2.31368 -0.53998,2.51991 0.08857,0.0886 0.456284,-0.0565 0.53998,-0.09 0.512397,-0.20496 0.228526,-0.11544 0.629975,-0.44998 0.264055,-0.22004 0.417111,-0.41711 0.629976,-0.62998"
       style="fill:none;stroke:#e5e5e5;stroke-width:1.8;stroke-linecap:round;stroke-linejoin:round;stroke-miterlimit:4;stroke-dasharray:none;stroke-opacity:1" />
    <path
       inkscape:connector-curvature="0"
       id="path1927"
       d="m 61.377676,137.06481 c 0.262009,-0.56507 0.773602,-0.89697 1.169956,-1.34995 0.234952,-0.26851 0.428212,-0.59115 0.719973,-0.80997 0.05366,-0.0402 0.132562,-0.0426 0.179993,-0.09 0.02122,-0.0212 -0.02122,-0.0688 0,-0.09 0.07831,-0.0783 0.36874,-0.10751 0.449983,-0.26999 0.103229,-0.20646 0.185401,-0.45539 0.359986,-0.62998 0.06,-0.06 0.179994,-0.26484 0.179994,-0.17999 0,0.0671 -0.06767,0.11674 -0.09,0.17999 -0.157866,0.44729 -0.32518,0.89234 -0.449984,1.34995 -0.187778,0.68852 -0.269989,1.44885 -0.269989,2.15992 0,0.19422 -0.104913,0.59003 0.09,0.71997 0.225028,0.15002 0.927103,-0.8371 1.079961,-0.98996 0.436131,-0.43613 0.895699,-0.8491 1.259951,-1.34995 0.250317,-0.34418 0.416845,-0.68683 0.719973,-0.98996 0.47887,-0.47887 1.108716,-0.80837 1.529943,-1.34995 0.122036,-0.1569 0.623303,-1.19827 0.719973,-1.43994 0.04762,-0.11907 0.02328,-0.34991 0.09,-0.44999 0.388315,-0.58247 0.833802,-1.19379 1.349949,-1.70993 0.05028,-0.0503 0.606697,-0.49343 0.629975,-0.53998 0.01341,-0.0268 0.03,-0.09 0,-0.09 -0.06708,0 -0.05101,0.12541 -0.09,0.17999 -0.125738,0.17604 -0.246613,0.35575 -0.359987,0.53998 -0.820084,1.33264 -1.047689,2.69309 -1.529942,4.13985 -0.09904,0.29712 -0.14953,0.61086 -0.269989,0.89996 -0.05769,0.13846 -0.19282,0.23137 -0.269991,0.35999 -0.102648,0.17108 -0.283718,0.60659 -0.359987,0.80997 -0.04343,0.11581 -0.05088,0.24264 -0.09,0.35999 -0.02122,0.0636 -0.149995,0.14999 -0.09,0.17999 0.06,0.03 0.05101,-0.12541 0.09,-0.17999 0.285981,-0.40038 0.565172,-0.80941 0.899967,-1.16996 1.165104,-1.25473 0.147506,0.0979 1.079958,-0.98996 0.825984,-0.96365 1.618679,-1.97839 2.42991,-2.96989 0.148365,-0.18134 0.309403,-0.35254 0.449982,-0.53998 0.04686,-0.0625 0.137022,-0.31702 0.179993,-0.35999 0.02122,-0.0212 0.06878,0.0212 0.09,0 0.0041,-0.004 0.269991,-0.45243 0.269991,-0.35998 0,0.0332 -1.065811,1.6788 -1.07996,1.70993 -0.489204,1.07625 -1.026912,2.75012 -1.34995,3.68986 -0.15649,0.45525 -0.180549,0.90136 -0.359986,1.34995 -0.04594,0.11484 -0.06,0.23999 -0.09,0.35999 -0.0073,0.0291 -0.01341,0.11683 0,0.09 0.525719,-1.05144 1.533459,-1.93601 2.339912,-2.7899 0.745707,-0.78957 0.488487,-0.56132 1.079957,-1.34995 0.326949,-0.43593 0.722977,-0.67835 1.079961,-1.07996 0.127614,-0.14356 0.22416,-0.31415 0.359987,-0.44998 0.0047,-0.005 0.364677,-0.18468 0.359986,-0.17999 -0.04743,0.0474 -0.138551,0.0373 -0.179993,0.09 -0.989968,1.25996 -1.711653,2.8539 -2.339911,4.31984 -0.248907,0.58078 -0.288478,0.68789 -0.359987,1.25995 -0.01117,0.0893 -0.09,0.26999 0,0.26999 0.444471,0 0.566711,-0.56671 0.809969,-0.80997 0.165674,-0.16567 0.374306,-0.28431 0.53998,-0.44998 0.04743,-0.0474 0.04256,-0.13256 0.09,-0.17999 0.610365,-0.61037 1.327947,-1.1511 1.979925,-1.70994 0.398558,-0.34162 0.749551,-0.76466 1.169956,-1.07996 0.134469,-0.10085 0.631002,-0.49549 0.359986,-0.35998 -0.9282,0.4641 -2.267661,2.7713 -2.699898,3.77985 -0.189039,0.4411 -0.517586,0.85499 0.09,0.71998 0.587574,-0.13058 0.491353,-0.2926 0.989963,-0.71998 0.227769,-0.19523 0.50112,-0.3348 0.719973,-0.53998 0.09154,-0.0858 1.106723,-1.24841 1.259951,-1.43994 0.293534,-0.36692 0.671582,-1.12157 0.989963,-1.43995 0.221464,-0.22146 -0.14845,0.61131 -0.269989,0.89997 -0.311526,0.73987 -0.831689,1.81853 -0.989963,2.6099 -0.03225,0.16125 -0.181125,0.62884 -0.179993,0.62998 0.232847,0.23284 0.53149,-0.26151 0.629976,-0.35999 0.625139,-0.62514 -0.668206,0.68793 0.629975,-0.80997 0.558316,-0.64421 1.174406,-1.22052 1.709936,-1.88993 0.222837,-0.27855 0.351957,-0.54801 0.449982,-0.44998 0.07648,0.0765 -0.117123,0.18197 -0.179993,0.26999 -0.251471,0.35206 -0.474864,0.72344 -0.719971,1.07996 -0.337743,0.49126 -0.593561,0.96727 -0.809972,1.52994 -0.146444,0.38075 -0.285768,0.86471 -0.17999,0.89996 0.713787,0.23793 2.509657,-2.04943 2.879889,-2.78989 0.02652,-0.053 0.258714,-0.53998 0.359986,-0.53998 0.09,0 0.04025,0.18949 0,0.26999 -0.163761,0.32752 -0.452141,0.57987 -0.629975,0.89997 -0.09054,0.16296 -0.820291,2.28201 -0.629976,2.5199 0.07727,0.0966 0.249357,-0.0347 0.359987,-0.09 0.464513,-0.23226 0.639585,-0.72959 0.989962,-1.07997 0.135824,-0.13582 0.304139,-0.23497 0.449983,-0.35998 0.185729,-0.1592 0.435811,-0.33164 0.53998,-0.53998 0.03794,-0.0759 0.179993,-0.26484 0.179993,-0.17999 0,0.21632 -0.276786,0.34029 -0.359987,0.53997 -0.142274,0.34146 -0.444341,1.62559 -0.359986,1.70994 0.148725,0.14873 0.829548,-0.36196 0.899967,-0.44998 0.05926,-0.0741 0.04119,-0.18865 0.09,-0.26999 0.133591,-0.22265 0.266044,-0.17605 0.449982,-0.35999 0.322797,-0.32279 0.629978,-0.77676 0.629978,-0.62998 0,0.0671 -0.07235,0.11528 -0.09,0.18 -0.07277,0.26683 -0.09865,0.54562 -0.179993,0.80997 -0.03946,0.12822 -0.137568,0.23271 -0.179994,0.35998 -0.169185,0.50756 -0.106957,1.28823 0.449985,0.35999 0.112752,-0.18792 0.349547,-0.80997 0.629976,-0.80997"
       style="fill:none;stroke:#e5e5e5;stroke-width:1.8;stroke-linecap:round;stroke-linejoin:round;stroke-miterlimit:4;stroke-dasharray:none;stroke-opacity:1" />
    <path
       inkscape:connector-curvature="0"
       id="path1925"
       d="m 49.768117,137.6048 c 1.261496,-1.10096 2.05545,-2.73767 3.599863,-3.50987 0.466725,-0.23336 -0.376177,0.37618 -0.449982,0.44998 -0.523433,0.52343 -0.727737,1.21031 -1.169956,1.79993 -0.03641,0.0486 -0.445066,0.5449 -0.359987,0.62998 0.14909,0.14909 0.536813,-0.0985 0.629976,-0.18 0.54066,-0.47307 0.978193,-1.07014 1.529942,-1.52994 0.327541,-0.27295 0.664483,-0.53456 0.989963,-0.80997 0.232386,-0.19663 0.53998,-0.50554 0.53998,-0.26999 0,0.47434 -0.805225,1.16047 -0.989963,1.52995 -1.363546,2.72709 0.110768,-0.23193 -0.449982,1.16995 -0.0013,0.003 -0.16447,0.44998 -0.09,0.44998 0.192088,0 0.232371,-0.30641 0.359987,-0.44998 0.859607,-0.96705 1.714664,-1.94541 2.699898,-2.78989 0.107194,-0.0919 0.567076,-0.62998 0.719971,-0.62998 0.01056,0 -0.06957,0.19641 -0.269989,0.53998 -0.19622,0.33638 -1.612878,2.25698 -1.259951,2.6099 0.329475,0.32948 1.081196,-0.90244 1.169956,-1.07996 0.05692,-0.11383 0.19939,-0.16409 0.269989,-0.26999 0.08961,-0.13441 0.09437,-0.31299 0.179993,-0.44998 0.175567,-0.28091 0.399254,-0.48925 0.629976,-0.71997 0.29704,-0.29704 0.623141,-0.53315 0.899967,-0.80997 0.254322,-0.25433 0.472204,-0.5622 0.719971,-0.80997 0.103137,-0.10314 0.346847,-0.16686 0.449984,-0.26999 0.226603,-0.2266 0.401209,-0.47059 0.719971,-0.62998 0.797396,-0.39869 1.540397,-0.64042 2.159921,-1.25995"
       style="fill:none;stroke:#e5e5e5;stroke-width:1.8;stroke-linecap:round;stroke-linejoin:round;stroke-miterlimit:4;stroke-dasharray:none;stroke-opacity:1" />
    <path
       style="fill:none;stroke:#242f40;stroke-width:1.8;stroke-linecap:round;stroke-linejoin:round;stroke-miterlimit:4;stroke-dasharray:none;stroke-opacity:1"
       d="m 46.93131,137.95014 c 0.638357,-1.9162 2.543482,-4.78348 7.67187,-6.0688 0.11055,-0.0202 0.220189,-0.0401 0.32821,-0.0634 4.641998,-1.00026 7.178379,-3.63924 9.862785,-6.23439 l 2.418509,4.09679"
       id="path294"
       inkscape:connector-curvature="0"
       sodipodi:nodetypes="ccscc" />
    <path
       style="fill:none;stroke:#242f40;stroke-width:1.8;stroke-linecap:round;stroke-linejoin:round;stroke-miterlimit:4;stroke-dasharray:none;stroke-opacity:1"
       d="m 60.409426,135.08174 c -0.02332,-0.74658 0.177593,-1.49796 1.331232,-2.1646 2.566542,-1.4831 4.141265,-1.43983 5.767341,-2.86766 2.172359,-1.44691 2.92846,-3.39166 4.008465,-4.90432 1.38555,2.42776 5.206602,3.95617 8.363375,5.28115 4.29175,1.69743 7.868142,3.58832 8.387973,7.29481 v 0"
       id="path1123"
       inkscape:connector-curvature="0"
       sodipodi:nodetypes="csccccc" />
    <circle
       r="0.4858059"
       style="fill:#0000ff;stroke:#cca43b;stroke-width:1.18155;stroke-linecap:round;stroke-linejoin:round;stroke-miterlimit:4;stroke-dasharray:none;stroke-opacity:1"
       id="path1125"
       cx="63.59185"
       cy="129.75185" />
    <circle
       r="0.4858059"
       cy="133.40253"
       cx="66.899689"
       id="path1125-2"
       style="fill:#0000ff;stroke:#cca43b;stroke-width:1.18155;stroke-linecap:round;stroke-linejoin:round;stroke-miterlimit:4;stroke-dasharray:none;stroke-opacity:1" />
    <circle
       r="0.4858059"
       style="fill:#0000ff;stroke:#cca43b;stroke-width:1.18155;stroke-linecap:round;stroke-linejoin:round;stroke-miterlimit:4;stroke-dasharray:none;stroke-opacity:1"
       id="path1125-2-9"
       cx="71.193733"
       cy="129.8336" />
    <path
       style="fill:none;stroke:#242f40;stroke-width:1.8;stroke-linecap:round;stroke-linejoin:round;stroke-miterlimit:4;stroke-dasharray:none;stroke-opacity:1"
       d="m 54.952514,120.73018 c -3.142489,-0.0234 -6.4306,0.12438 -8.513622,-1.66933 -1.302482,-1.12158 -1.026716,-2.96171 0.998208,-3.92351 4.558865,-1.53497 5.151836,-1.70362 7.094918,-2.72219 4.812369,-2.86899 7.39322,-6.97198 11.017396,-9.38051 1.422452,-0.94532 3.310465,-1.41639 4.423745,-0.0835 2.093904,2.50701 3.854326,4.65392 6.343482,6.00962 3.720395,2.02627 8.43468,3.35621 10.433361,6.84428 0.662943,1.15696 2.182838,3.69798 -0.08347,3.83948 l -7.543119,0.47098"
       id="path1211"
       inkscape:connector-curvature="0"
       sodipodi:nodetypes="csccsssssc" />
    <path
       style="fill:none;stroke:#cca43b;stroke-width:1.2;stroke-linecap:round;stroke-linejoin:round;stroke-miterlimit:4;stroke-dasharray:none;stroke-opacity:1"
       d="m 60.771304,115.25612 c -0.08615,0.50899 -0.919724,1.74097 -2.504007,1.91974 -0.79249,0.0894 -1.329941,-0.79145 -1.012059,-1.60515 0.427266,-1.09369 1.462645,-0.81832 1.651699,-0.16693"
       id="path1215"
       inkscape:connector-curvature="0"
       sodipodi:nodetypes="cssc" />
    <path
       sodipodi:nodetypes="cssc"
       inkscape:connector-curvature="0"
       id="path1215-8"
       d="m 60.246704,118.54557 c -0.08615,0.50898 -0.919724,1.74097 -2.504006,1.91974 -0.792491,0.0894 -1.329942,-0.79145 -1.01206,-1.60515 0.427267,-1.09369 1.462645,-0.81832 1.651699,-0.16693"
       style="fill:none;stroke:#cca43b;stroke-width:1.2;stroke-linecap:round;stroke-linejoin:round;stroke-miterlimit:4;stroke-dasharray:none;stroke-opacity:1" />
    <path
       style="fill:none;stroke:#cca43b;stroke-width:1.2;stroke-linecap:round;stroke-linejoin:round;stroke-miterlimit:4;stroke-dasharray:none;stroke-opacity:1"
       d="m 60.794203,121.87275 c -0.08615,0.50899 -0.919724,1.74098 -2.504006,1.91975 -0.792491,0.0894 -1.329942,-0.79146 -1.01206,-1.60515 0.427267,-1.09369 1.462645,-0.81833 1.651699,-0.16694"
       id="path1215-8-5"
       inkscape:connector-curvature="0"
       sodipodi:nodetypes="cssc" />
    <path
       sodipodi:nodetypes="cssc"
       inkscape:connector-curvature="0"
       id="path1215-2"
       d="m 73.518771,114.93748 c 0.08615,0.50898 0.919723,1.74097 2.504007,1.91974 0.792491,0.0894 1.329943,-0.79146 1.01206,-1.60515 -0.427268,-1.09369 -1.462647,-0.81832 -1.6517,-0.16694"
       style="fill:none;stroke:#cca43b;stroke-width:1.2;stroke-linecap:round;stroke-linejoin:round;stroke-miterlimit:4;stroke-dasharray:none;stroke-opacity:1" />
    <path
       style="fill:none;stroke:#cca43b;stroke-width:1.2;stroke-linecap:round;stroke-linejoin:round;stroke-miterlimit:4;stroke-dasharray:none;stroke-opacity:1"
       d="m 74.119178,118.07399 c 0.08615,0.50899 0.919723,1.74098 2.504007,1.91975 0.792488,0.0894 1.32994,-0.79146 1.012058,-1.60515 -0.427266,-1.09369 -1.462645,-0.81833 -1.651698,-0.16694"
       id="path1215-8-7"
       inkscape:connector-curvature="0"
       sodipodi:nodetypes="cssc" />
    <path
       sodipodi:nodetypes="cssc"
       inkscape:connector-curvature="0"
       id="path1215-8-5-5"
       d="m 73.578463,121.48137 c 0.08615,0.50899 0.919726,1.74098 2.504008,1.91975 0.792491,0.0894 1.329942,-0.79146 1.01206,-1.60515 -0.427268,-1.09369 -1.462644,-0.81833 -1.651701,-0.16694"
       style="fill:none;stroke:#cca43b;stroke-width:1.2;stroke-linecap:round;stroke-linejoin:round;stroke-miterlimit:4;stroke-dasharray:none;stroke-opacity:1" />
  </g>
</svg>
