<?xml version="1.0" encoding="UTF-8" standalone="no"?>
<svg viewBox="0 0 68 68" xmlns="http://www.w3.org/2000/svg">
    <path d="M33.9364 7.41462e-06C15.1869 0.0237062-0.000105687 15.2302-1.2324e-06 33.9802C4.15313e-05 52.7469 15.2132 67.9602 33.9796 67.9601C52.7458 67.9601 67.9589 52.7468 67.9589 33.9802C67.959 15.2135 52.7459 4.07956e-05 33.9796 8.05848e-06C33.9652-3.07418e-06 33.9508-2.07031e-06 33.9364 7.41462e-06ZM49.8756 8.45994C51.4577 8.46833 52.735 9.78195 52.7269 11.3921L52.668 23.0602C52.6598 24.6703 51.3691 25.9701 49.7871 25.9617C48.205 25.9534 46.9277 24.64 46.9359 23.0298L41.2037 22.9994C39.6217 22.991 38.331 24.2911 38.3228 25.9012L38.3084 28.7575L40.954 28.7575C41.0207 28.7526 41.0875 28.7502 41.1543 28.7502C42.7305 28.7501 44.0083 30.0841 44.0083 31.7298C44.0083 33.3754 42.7305 34.7095 41.1543 34.7094C41.077 34.7094 40.9996 34.7061 40.9225 34.6995L24.162 34.6995L24.162 34.6898C24.1169 34.6921 24.0718 34.6933 24.0266 34.6934C22.4503 34.6934 21.1725 33.3629 21.1726 31.7216C21.1727 30.0803 22.4504 28.7499 24.0266 28.75C24.0946 28.75 24.1626 28.7525 24.2304 28.7576L26.8437 28.7576L26.8734 22.9235C26.906 16.4798 32.0656 11.2827 38.3968 11.3163L46.995 11.3618C47.0032 9.75162 48.2936 8.4516 49.8756 8.45994ZM26.7995 36.2099L38.2639 36.2707L38.2196 45.0217C38.187 51.4653 33.0275 56.6625 26.6963 56.629L20.9641 56.5986C20.956 58.2088 19.6653 59.5089 18.0832 59.5005C16.5012 59.4921 15.2239 58.1785 15.232 56.5683L15.2912 44.9003C15.2993 43.2901 16.5898 41.99 18.1718 41.9984C19.7539 42.0068 21.0314 43.3204 21.0233 44.9306L23.8893 44.9458C25.4714 44.9542 26.7618 43.6542 26.77 42.044L26.7995 36.2099Z"
          fill="#333333" fill-rule="evenodd" opacity="1" stroke="none"/>
    <path d="M23.1823 34.548C22.6912 34.371 22.3377 34.1203 21.94 33.6672C21.4572 33.117 21.25 32.545 21.2472 31.7542C21.2436 30.7565 21.6054 30.0132 22.4034 29.3784C23.008 28.8976 23.3128 28.8385 25.2038 28.8356L26.8892 28.8332L26.9236 25.1915C26.9547 21.8985 26.9729 21.4781 27.1138 20.8017C28.0282 16.4109 31.055 13.0536 35.2119 11.8195C36.5789 11.4137 37.0576 11.3841 42.2428 11.3841L47.0328 11.3841L47.0678 11.0104C47.0871 10.8049 47.189 10.444 47.2943 10.2084C48.2055 8.16942 50.9509 7.93281 52.182 9.78718C52.6826 10.5412 52.6832 10.5483 52.6646 15.3557C52.6554 17.7342 52.6293 20.6101 52.6064 21.7465L52.5649 23.8129L52.3149 24.3325C51.8795 25.238 51.0122 25.8424 50.027 25.927C48.5361 26.0551 47.2087 24.9702 46.9948 23.4488L46.9359 23.0298L43.7054 23.0298L40.4749 23.0298L40.0186 23.2479C39.4428 23.5231 38.8965 24.064 38.5866 24.6656L38.3458 25.133L38.3219 26.9791L38.2979 28.8251L40.0707 28.8486C41.8084 28.8717 41.8521 28.8763 42.2751 29.0794C42.8796 29.3697 43.3565 29.8482 43.6494 30.4583C43.8808 30.9401 43.8965 31.0252 43.8963 31.7921C43.8961 32.5422 43.8774 32.6491 43.6743 33.0604C43.4103 33.595 42.7822 34.2285 42.2808 34.4657L41.9196 34.6366L32.719 34.653C24.5616 34.6675 23.4803 34.6556 23.1823 34.5482L23.1823 34.548Z"
          fill="#ffffff" fill-rule="evenodd" opacity="1" stroke="none"/>
    <path d="M17.4846 59.3563C16.6982 59.1535 15.9033 58.4723 15.5567 57.7042C15.3413 57.2268 15.3382 57.1994 15.3166 55.5881C15.3046 54.6902 15.324 51.7518 15.3597 49.0582C15.4221 44.3466 15.4305 44.1476 15.5818 43.8111C16.1184 42.6175 17.2103 41.9428 18.4353 42.0478C19.732 42.1589 20.829 43.2079 20.9859 44.4869L21.0413 44.9382L22.8274 44.9382L24.6136 44.9382L25.1078 44.6953C25.7664 44.3714 26.1718 43.9959 26.4544 43.4477C26.8283 42.7225 26.8565 42.4262 26.8565 39.2208L26.8565 36.2707L32.5602 36.2707L38.2639 36.2707L38.2485 39.7105C38.2273 44.4682 38.1625 46.4295 38.0016 47.1926C37.5252 49.4519 36.4837 51.447 34.9537 53.0313C33.5299 54.5055 31.9898 55.4635 30.0923 56.0553C28.73 56.4801 28.4474 56.5057 24.5756 56.5538L20.9641 56.5986L20.9159 57.0025C20.8082 57.9048 20.0565 58.8744 19.215 59.1963C18.6999 59.3933 17.911 59.4663 17.4846 59.3563Z"
          fill="#ffffff" fill-rule="evenodd" opacity="1" stroke="none"/>
</svg>
