<?xml version="1.0" encoding="UTF-8" standalone="no"?>
<svg
        width="67.958893mm"
        height="67.960136mm"
        viewBox="0 0 67.958893 67.960137"
        version="1.1"
        id="svg8"
        sodipodi:docname="fritz2_logo_small_grey.svg"
        inkscape:version="1.1 (ce6663b3b7, 2021-05-25)"
        inkscape:export-filename="/home/jan/IdeaProjects/fritz2-kitchensink/src/jsMain/resources/icon/fritz2_180.png"
        inkscape:export-xdpi="67.279999"
        inkscape:export-ydpi="67.279999"
        xmlns:inkscape="http://www.inkscape.org/namespaces/inkscape"
        xmlns:sodipodi="http://sodipodi.sourceforge.net/DTD/sodipodi-0.dtd"
        xmlns="http://www.w3.org/2000/svg"
        xmlns:rdf="http://www.w3.org/1999/02/22-rdf-syntax-ns#"
        xmlns:cc="http://creativecommons.org/ns#"
        xmlns:dc="http://purl.org/dc/elements/1.1/">
  <sodipodi:namedview
     id="namedview71"
     pagecolor="#505050"
     bordercolor="#eeeeee"
     borderopacity="1"
     inkscape:pageshadow="0"
     inkscape:pageopacity="0"
     inkscape:pagecheckerboard="true"
     inkscape:document-units="mm"
     showgrid="false"
     inkscape:zoom="2.4589464"
     inkscape:cx="186.0553"
     inkscape:cy="129.32368"
     inkscape:window-width="1920"
     inkscape:window-height="1019"
     inkscape:window-x="0"
     inkscape:window-y="0"
     inkscape:window-maximized="1"
     inkscape:current-layer="svg8"
     width="68mm"
     showborder="true" />
  <defs
     id="defs2" />
  <metadata
     id="metadata5">
    <rdf:RDF>
      <cc:Work
         rdf:about="">
        <dc:format>image/svg+xml</dc:format>
        <dc:type
           rdf:resource="http://purl.org/dc/dcmitype/StillImage" />
      </cc:Work>
    </rdf:RDF>
    <rdf:RDF>
      <cc:Work
         rdf:about="">
        <dc:title />
      </cc:Work>
    </rdf:RDF>
  </metadata>
  <g
     transform="translate(-12.919274,-14.353776)"
     id="layer2" />
  <g
     transform="matrix(1,0,0,1.0231553,-12.94759,-13.597428)"
     id="layer1">
    <path
       d="M 46.884026,13.289708 A 33.97939,33.211013 0 0 0 12.94759,46.500877 33.97939,33.211013 0 0 0 46.927153,79.711816 33.97939,33.211013 0 0 0 80.906484,46.500877 33.97939,33.211013 0 0 0 46.927153,13.289708 a 33.97939,33.211013 0 0 0 -0.04313,0 z m 15.939212,8.268477 c 1.58206,0.0082 2.85937,1.292086 2.851222,2.865829 l -0.05889,11.403963 c -0.0082,1.573742 -1.298838,2.844131 -2.880903,2.83592 -1.582065,-0.0082 -2.859388,-1.291856 -2.851222,-2.865598 l -5.732121,-0.02968 c -1.582074,-0.0082 -2.872737,1.26241 -2.880904,2.836152 l -0.01438,2.791633 h 2.645561 a 2.8539142,2.912251 0 0 1 0.200328,-0.0072 2.8539142,2.912251 0 0 1 2.854009,2.912201 2.8539142,2.912251 0 0 1 -2.854009,2.912204 2.8539142,2.912251 0 0 1 -0.231861,-0.0097 H 37.109599 v -0.0095 a 2.8539142,2.9044336 0 0 1 -0.135409,0.0035 2.8539142,2.9044336 0 0 1 -2.854006,-2.904551 2.8539142,2.9044336 0 0 1 2.854006,-2.90432 2.8539142,2.9044336 0 0 1 0.203808,0.0074 h 2.613331 l 0.02968,-5.701982 c 0.0326,-6.297878 5.192189,-11.377382 11.523373,-11.344606 l 8.598185,0.04452 c 0.0082,-1.573742 1.298605,-2.844344 2.88067,-2.836151 z m -23.076195,27.121975 11.46448,0.05936 -0.04429,8.552973 c -0.03261,6.297771 -5.192189,11.377359 -11.523373,11.344609 l -5.732123,-0.02966 c -0.0081,1.573742 -1.298842,2.844362 -2.880902,2.836151 -1.582069,-0.0082 -2.859389,-1.29209 -2.851223,-2.865831 l 0.05913,-11.403961 c 0.0081,-1.573742 1.298604,-2.844362 2.880669,-2.836151 1.58206,0.0082 2.85962,1.292081 2.851454,2.865827 l 2.866063,0.01485 c 1.582064,0.0082 2.872503,-1.262405 2.880669,-2.836155 z"
       style="fill:#333333;stroke-width:0.118714"
       id="path30" />
    <g
       style="font-style:normal;font-weight:normal;font-size:10.5833px;line-height:1.25;font-family:sans-serif;fill:#333333;fill-opacity:1;stroke:none;stroke-width:0.264583"
       id="text62" />
  </g>
  <path
     style="fill:#ffffff;stroke-width:0.0769621"
     d="m 23.182272,34.548045 c -0.491075,-0.177046 -0.844587,-0.427703 -1.242239,-0.880808 -0.482855,-0.55019 -0.690027,-1.122213 -0.69284,-1.913007 -0.0036,-0.997709 0.358205,-1.741048 1.156211,-2.375805 0.604549,-0.480873 0.909419,-0.539971 2.800412,-0.542822 l 1.68539,-0.0024 0.03439,-3.641726 c 0.0311,-3.292931 0.04932,-3.713366 0.190178,-4.389736 0.914452,-4.390888 3.941245,-7.748098 8.098166,-8.982194 1.366945,-0.405816 1.845616,-0.435463 7.030875,-0.435463 h 4.789958 l 0.03505,-0.373664 c 0.01928,-0.205515 0.121186,-0.56642 0.226467,-0.802007 0.91119,-2.0389914 3.656653,-2.2756031 4.887684,-0.421235 0.500583,0.754056 0.501195,0.761123 0.482671,5.56848 -0.0092,2.378501 -0.03536,5.254393 -0.05823,6.390873 l -0.04155,2.06633 -0.249917,0.519674 C 51.8795,25.237993 51.012219,25.842417 50.027,25.927036 48.536134,26.055082 47.208724,24.970197 46.994781,23.448821 l -0.05893,-0.41903 H 43.705357 40.47486 l -0.456228,0.218076 c -0.575836,0.275249 -1.122128,0.816088 -1.43207,1.417779 l -0.240762,0.467387 -0.02395,1.846037 -0.02396,1.846039 1.772818,0.02352 c 1.737644,0.02305 1.781383,0.02763 2.204347,0.23075 0.604543,0.290332 1.081435,0.768794 1.374377,1.378906 0.231358,0.481851 0.247103,0.566903 0.246867,1.333811 -2.27e-4,0.750095 -0.01893,0.857001 -0.222026,1.268273 -0.263996,0.534638 -0.892108,1.168082 -1.393469,1.405296 l -0.361237,0.170917 -9.200572,0.01638 c -8.15738,0.01456 -9.238689,0.0026 -9.536729,-0.104798 z"
     id="path227" />
  <path
     style="fill:#ffffff;stroke-width:0.0768783"
     d="m 17.484593,59.356306 c -0.786416,-0.202839 -1.581339,-0.884048 -1.927862,-1.652074 -0.215417,-0.477448 -0.218521,-0.504813 -0.240086,-2.116159 -0.01202,-0.897852 0.0074,-3.836272 0.04304,-6.529827 0.06243,-4.711689 0.07085,-4.910635 0.222133,-5.247181 0.536533,-1.193561 1.628437,-1.868311 2.85344,-1.763307 1.296781,0.111158 2.393731,1.16016 2.550665,2.439177 l 0.05537,0.451302 h 1.786147 1.786147 l 0.494196,-0.242982 c 0.658641,-0.323839 1.063976,-0.69935 1.346602,-1.247528 0.3739,-0.725213 0.402087,-1.02154 0.402087,-4.226915 V 36.27067 h 5.703732 5.70373 l -0.01539,3.43982 c -0.02129,4.757678 -0.08602,6.719038 -0.246924,7.482091 -0.476438,2.259366 -1.51789,4.254379 -3.047948,5.838674 -1.423789,1.474258 -2.963849,2.432252 -4.861386,3.024024 -1.362262,0.424839 -1.644887,0.450378 -5.516713,0.498488 l -3.611426,0.04487 -0.0482,0.40382 c -0.107717,0.902334 -0.859483,1.871942 -1.700951,2.19384 -0.515095,0.197045 -1.303975,0.269993 -1.730398,0.160006 z"
     id="path266" />
</svg>
