<?xml version="1.0" encoding="UTF-8" standalone="no"?>
<svg
        width="68mm"
        height="68mm"
        viewBox="0 0 68 68.000001"
        version="1.1"
        id="svg8"
        sodipodi:docname="fritz2_logo_small_white.svg"
        inkscape:version="1.1 (ce6663b3b7, 2021-05-25)"
        xsi:schemaLocation="http://purl.org/dc/elements/1.1/ "
        xmlns:inkscape="http://www.inkscape.org/namespaces/inkscape"
        xmlns:sodipodi="http://sodipodi.sourceforge.net/DTD/sodipodi-0.dtd"
        xmlns="http://www.w3.org/2000/svg"
        xmlns:rdf="http://www.w3.org/1999/02/22-rdf-syntax-ns#"
        xmlns:cc="http://creativecommons.org/ns#"
        xmlns:dc="http://purl.org/dc/elements/1.1/"
        xmlns:xsi="http://www.w3.org/2001/XMLSchema-instance">
    <sodipodi:namedview
            id="namedview74"
            pagecolor="#505050"
            bordercolor="#eeeeee"
            borderopacity="1"
            inkscape:pageshadow="0"
            inkscape:pageopacity="0"
            inkscape:pagecheckerboard="false"
            inkscape:document-units="mm"
            showgrid="false"
            inkscape:snap-text-baseline="false"
            inkscape:zoom="2.4589463"
            inkscape:cx="-39.854469"
            inkscape:cy="132.37377"
            inkscape:window-width="1920"
            inkscape:window-height="1082"
            inkscape:window-x="1080"
            inkscape:window-y="420"
            inkscape:window-maximized="0"
            inkscape:current-layer="svg8"
            width="68mm"/>
    <defs
            id="defs2"/>
    <metadata
            id="metadata5">
        <rdf:RDF>
            <cc:Work
                    rdf:about="">
                <dc:format>image/svg+xml</dc:format>
                <dc:type
                        rdf:resource="http://purl.org/dc/dcmitype/StillImage"/>
            </cc:Work>
        </rdf:RDF>
        <rdf:RDF>
            <cc:Work
                    rdf:about="">
                <dc:title/>
            </cc:Work>
        </rdf:RDF>
    </metadata>
    <g
            transform="translate(-12.94759,-13.289701)"
            id="layer2"/>
    <g
            transform="translate(-12.94759,-13.289701)"
            id="layer1">
        <path
                d="M 46.884026,13.289708 A 33.97939,33.211013 0 0 0 12.94759,46.500877 33.97939,33.211013 0 0 0 46.927153,79.711816 33.97939,33.211013 0 0 0 80.906484,46.500877 33.97939,33.211013 0 0 0 46.927153,13.289708 a 33.97939,33.211013 0 0 0 -0.04313,0 z m 15.939212,8.268477 c 1.58206,0.0082 2.85937,1.292086 2.851222,2.865829 l -0.05889,11.403963 c -0.0082,1.573742 -1.298838,2.844131 -2.880903,2.83592 -1.582065,-0.0082 -2.859388,-1.291856 -2.851222,-2.865598 l -5.732121,-0.02968 c -1.582074,-0.0082 -2.872737,1.26241 -2.880904,2.836152 l -0.01438,2.791633 h 2.645561 a 2.8539142,2.912251 0 0 1 0.200328,-0.0072 2.8539142,2.912251 0 0 1 2.854009,2.912201 2.8539142,2.912251 0 0 1 -2.854009,2.912204 2.8539142,2.912251 0 0 1 -0.231861,-0.0097 H 37.109599 v -0.0095 a 2.8539142,2.9044336 0 0 1 -0.135409,0.0035 2.8539142,2.9044336 0 0 1 -2.854006,-2.904551 2.8539142,2.9044336 0 0 1 2.854006,-2.90432 2.8539142,2.9044336 0 0 1 0.203808,0.0074 h 2.613331 l 0.02968,-5.701982 c 0.0326,-6.297878 5.192189,-11.377382 11.523373,-11.344606 l 8.598185,0.04452 c 0.0082,-1.573742 1.298605,-2.844344 2.88067,-2.836151 z m -23.076195,27.121975 11.46448,0.05936 -0.04429,8.552973 c -0.03261,6.297771 -5.192189,11.377359 -11.523373,11.344609 l -5.732123,-0.02966 c -0.0081,1.573742 -1.298842,2.844362 -2.880902,2.836151 -1.582069,-0.0082 -2.859389,-1.29209 -2.851223,-2.865831 l 0.05913,-11.403961 c 0.0081,-1.573742 1.298604,-2.844362 2.880669,-2.836151 1.58206,0.0082 2.85962,1.292081 2.851454,2.865827 l 2.866063,0.01485 c 1.582064,0.0082 2.872503,-1.262405 2.880669,-2.836155 z"
                style="fill:#ffffff;stroke-width:0.118714"
                id="path30"/>
        <g
                style="font-style:normal;font-weight:normal;font-size:10.5833px;line-height:1.25;font-family:sans-serif;fill:#000000;fill-opacity:1;stroke:none;stroke-width:0.264583"
                id="text62"/>
    </g>
    <path
            style="fill:#333333;fill-opacity:1;stroke-width:0.287565"
            d="m 66.066875,219.38742 c -3.038547,-0.71613 -5.867044,-3.00209 -7.283075,-5.88611 l -0.839463,-1.70972 -0.08078,-22.57385 c -0.0526,-14.69789 0.02426,-23.2556 0.220292,-24.52788 0.585362,-3.79905 2.658302,-6.68042 5.983945,-8.31763 1.74193,-0.85755 2.152289,-0.94273 4.510405,-0.93627 3.312581,0.009 5.469184,0.90194 7.586817,3.14102 1.768955,1.87041 2.502314,3.29373 2.950579,5.72656 l 0.351748,1.909 h 5.928741 c 6.40579,0 8.322946,-0.28604 10.506832,-1.56761 1.70432,-1.00015 3.516137,-2.9624 4.390664,-4.75521 l 0.77326,-1.58522 0.26511,-12.14961 0.26511,-12.14962 h 21.38028 21.38027 l -0.002,16.89444 c -0.001,9.66977 -0.12857,17.99621 -0.29751,19.47087 -1.18476,10.34233 -5.16014,18.59834 -12.47649,25.91105 -6.39548,6.39229 -13.29502,10.10459 -22.23022,11.96097 -2.8964,0.60176 -3.96863,0.65006 -16.64881,0.75002 l -13.553033,0.10683 -0.178624,1.34607 c -0.407817,3.07321 -2.953599,6.59304 -5.816327,8.04173 -2.124988,1.07536 -4.86658,1.42357 -7.087359,0.90017 z"
            id="path62602"
            transform="scale(0.26458333)"/>
    <path
            style="fill:#333333;fill-opacity:1;stroke-width:0.287565"
            d="m 87.698338,127.52643 c -1.886973,-0.58424 -4.278234,-2.36662 -5.476866,-4.08231 -3.876254,-5.54836 -1.833283,-13.26892 4.267773,-16.12828 1.619548,-0.75903 1.770467,-0.77467 8.335297,-0.86404 l 6.685888,-0.091 0.0207,-3.9349 c 0.0114,-2.16419 0.12897,-8.399341 0.26131,-13.855886 0.22055,-9.093933 0.30045,-10.172702 0.95837,-12.940422 1.94118,-8.165959 5.60061,-14.811131 11.41249,-20.723928 5.42431,-5.518494 11.51619,-9.137793 19.03365,-11.308251 5.20586,-1.503049 7.00924,-1.61292 26.47366,-1.61292 h 17.97104 l 0.18346,-1.147284 c 0.40219,-2.515142 1.36866,-4.407564 3.17188,-6.210788 2.7737,-2.773697 6.32756,-3.800102 9.94703,-2.872837 4.29459,1.100224 7.44838,4.544855 7.98275,8.718934 0.11659,0.910667 0.14728,11.813989 0.0682,24.229606 l -0.14379,22.573848 -0.66732,1.652538 c -0.93154,2.306832 -3.09089,4.579061 -5.4599,5.745326 -1.73571,0.854488 -2.1523,0.941103 -4.50663,0.936996 -2.20075,-0.0038 -2.84348,-0.120705 -4.23845,-0.770688 -3.33988,-1.556212 -5.65763,-4.58621 -6.30068,-8.236881 l -0.31705,-1.799958 -12.267,0.08607 -12.267,0.08607 -1.91172,0.941519 c -2.38183,1.173043 -4.53423,3.443271 -5.44716,5.745326 -0.59975,1.512347 -0.66443,2.205911 -0.76253,8.175627 l -0.10719,6.523083 6.85299,0.0909 c 6.78416,0.09 6.86891,0.0987 8.4382,0.87029 1.82165,0.89563 3.76021,2.70131 4.79744,4.46859 3.14906,5.36553 0.98022,12.41671 -4.67293,15.19237 l -1.70973,0.83946 -34.65157,0.0536 c -29.036307,0.0449 -34.862731,-0.0118 -35.954592,-0.34982 z"
            id="path62641"
            transform="scale(0.26458333)"/>
</svg>
