<?xml version="1.0" encoding="UTF-8" standalone="no"?>
<svg
        xmlns:dc="http://purl.org/dc/elements/1.1/"
        xmlns:cc="http://creativecommons.org/ns#"
        xmlns:rdf="http://www.w3.org/1999/02/22-rdf-syntax-ns#"
        xmlns="http://www.w3.org/2000/svg"
        xmlns:sodipodi="http://sodipodi.sourceforge.net/DTD/sodipodi-0.dtd"
        xmlns:inkscape="http://www.inkscape.org/namespaces/inkscape"
        width="359.64838mm"
        height="91.813721mm"
        viewBox="0 0 359.64838 91.813721"
        version="1.1"
        id="svg8"
        inkscape:version="1.0 (4035a4fb49, 2020-05-01)"
        sodipodi:docname="fritz_logo_grey.svg">
  <defs
     id="defs2" />
  <sodipodi:namedview
     id="base"
     pagecolor="#ffffff"
     bordercolor="#666666"
     borderopacity="1.0"
     inkscape:pageopacity="0.0"
     inkscape:pageshadow="2"
     inkscape:zoom="0.43764453"
     inkscape:cx="1121.6672"
     inkscape:cy="245.33934"
     inkscape:document-units="mm"
     inkscape:current-layer="layer1"
     inkscape:document-rotation="0"
     showgrid="false"
     inkscape:window-width="1680"
     inkscape:window-height="938"
     inkscape:window-x="0"
     inkscape:window-y="23"
     inkscape:window-maximized="0"
     fit-margin-top="0"
     fit-margin-left="0"
     fit-margin-right="0"
     fit-margin-bottom="0" />
  <metadata
     id="metadata5">
    <rdf:RDF>
      <cc:Work
         rdf:about="">
        <dc:format>image/svg+xml</dc:format>
        <dc:type
           rdf:resource="http://purl.org/dc/dcmitype/StillImage" />
        <dc:title />
      </cc:Work>
    </rdf:RDF>
  </metadata>
  <g
     inkscape:label="Ebene 2"
     id="layer2"
     inkscape:groupmode="layer"
     transform="translate(214.36779,-68.30486)" />
  <g
     inkscape:label="Ebene 1"
     inkscape:groupmode="layer"
     id="layer1"
     transform="translate(214.36779,-68.30486)">
    <path
       d="m -167.45825,68.304869 a 46.96891,45.906801 0 0 0 -46.90954,45.907021 46.96891,45.906801 0 0 0 46.96915,45.90669 46.96891,45.906801 0 0 0 46.96883,-45.90669 46.96891,45.906801 0 0 0 -46.96883,-45.907021 46.96891,45.906801 0 0 0 -0.0596,0 z m 22.03239,11.42932 c 2.18685,0.01132 3.95244,1.786021 3.94118,3.961369 l -0.0814,15.76343 c -0.0112,2.175342 -1.79535,3.931372 -3.9822,3.920022 -2.18685,-0.0113 -3.95247,-1.7857 -3.94118,-3.961046 l -7.92338,-0.04102 c -2.18686,-0.01132 -3.97091,1.744996 -3.9822,3.920346 l -0.0199,3.85881 h 3.65689 a 3.9448984,4.025536 0 0 1 0.27692,-0.01 3.9448984,4.025536 0 0 1 3.94502,4.02547 3.9448984,4.025536 0 0 1 -3.94502,4.02547 3.9448984,4.025536 0 0 1 -0.3205,-0.0135 h -23.1676 v -0.0131 a 3.9448984,4.0147301 0 0 1 -0.18718,0.005 3.9448984,4.0147301 0 0 1 -3.94502,-4.0149 3.9448984,4.0147301 0 0 1 3.94502,-4.01457 3.9448984,4.0147301 0 0 1 0.28172,0.0103 h 3.61235 l 0.041,-7.881716 c 0.0451,-8.70541 7.17704,-15.726688 15.92849,-15.681383 l 11.88507,0.06154 c 0.0113,-2.175348 1.79503,-3.931671 3.98188,-3.920345 z m -31.89768,37.490071 15.84708,0.082 -0.0612,11.82258 c -0.0451,8.70526 -7.17704,15.72665 -15.92849,15.68138 l -7.92338,-0.041 c -0.0113,2.17534 -1.79536,3.93169 -3.9822,3.92034 -2.18686,-0.0113 -3.95247,-1.78602 -3.94118,-3.96137 l 0.0817,-15.76343 c 0.0113,-2.17534 1.79503,-3.93169 3.98188,-3.92034 2.18684,0.0113 3.95279,1.78601 3.9415,3.96137 l 3.96169,0.0205 c 2.18685,0.0113 3.97059,-1.745 3.98188,-3.92035 z"
       style="fill:#333333;stroke-width:0.164095"
       id="path30"
       inkscape:connector-curvature="0" />
    <text
       xml:space="preserve"
       style="font-style:normal;font-weight:normal;font-size:10.5833px;line-height:1.25;font-family:sans-serif;fill:#000000;fill-opacity:1;stroke:none;stroke-width:0.264583"
       x="-76.8731"
       y="150.32117"
       id="text62"><tspan
         sodipodi:role="line"
         id="tspan60"
         x="-76.8731"
         y="150.32117"
         style="font-style:normal;font-variant:normal;font-weight:normal;font-stretch:normal;font-size:50.8px;font-family:Baskerville;-inkscape-font-specification:Baskerville;stroke-width:0.264583" /></text>
    <text
       id="text28"
       y="149.09201"
       x="-105.56731"
       style="font-style:normal;font-weight:normal;font-size:98.5491px;line-height:1.25;font-family:sans-serif;fill:#333333;fill-opacity:1;stroke:none;stroke-width:2.46373"
       xml:space="preserve"><tspan
         style="font-style:normal;font-variant:normal;font-weight:normal;font-stretch:normal;font-family:Nunito;-inkscape-font-specification:Nunito;fill:#333333;stroke-width:2.46373"
         y="149.09201"
         x="-105.56731"
         id="tspan26"
         sodipodi:role="line">fritz2</tspan></text>
  </g>
</svg>
