<?xml version="1.0" encoding="UTF-8" standalone="no"?>
<svg
        xmlns:dc="http://purl.org/dc/elements/1.1/"
        xmlns:cc="http://creativecommons.org/ns#"
        xmlns:rdf="http://www.w3.org/1999/02/22-rdf-syntax-ns#"
        xmlns="http://www.w3.org/2000/svg"
        xmlns:sodipodi="http://sodipodi.sourceforge.net/DTD/sodipodi-0.dtd"
        xmlns:inkscape="http://www.inkscape.org/namespaces/inkscape"
        width="210mm"
        height="297mm"
        viewBox="0 0 210 297"
        version="1.1"
        id="svg8"
        inkscape:version="1.0rc1 (09960d6, 2020-04-09)"
        sodipodi:docname="fritz_logo_white.svg">
  <defs
     id="defs2" />
  <sodipodi:namedview
     id="base"
     pagecolor="#ffffff"
     bordercolor="#666666"
     borderopacity="1.0"
     inkscape:pageopacity="0.0"
     inkscape:pageshadow="2"
     inkscape:zoom="0.43764453"
     inkscape:cx="-70.129984"
     inkscape:cy="800.54417"
     inkscape:document-units="mm"
     inkscape:current-layer="layer1"
     inkscape:document-rotation="0"
     showgrid="false"
     inkscape:window-width="1680"
     inkscape:window-height="1050"
     inkscape:window-x="0"
     inkscape:window-y="0"
     inkscape:window-maximized="0" />
  <metadata
     id="metadata5">
    <rdf:RDF>
      <cc:Work
         rdf:about="">
        <dc:format>image/svg+xml</dc:format>
        <dc:type
           rdf:resource="http://purl.org/dc/dcmitype/StillImage" />
        <dc:title></dc:title>
      </cc:Work>
    </rdf:RDF>
  </metadata>
  <g
     inkscape:label="Ebene 2"
     id="layer2"
     inkscape:groupmode="layer" />
  <g
     inkscape:label="Ebene 1"
     inkscape:groupmode="layer"
     id="layer1">
    <path
       transform="scale(0.26458333)"
       d="M -524.3418 258.16016 A 286.229 279.7565 0 0 0 -810.20898 537.91797 A 286.229 279.7565 0 0 0 -523.97852 817.67383 A 286.229 279.7565 0 0 0 -237.75 537.91797 A 286.229 279.7565 0 0 0 -523.97852 258.16016 A 286.229 279.7565 0 0 0 -524.3418 258.16016 z M -390.07617 327.81055 C -376.7495 327.87954 -365.98996 338.69458 -366.05859 351.95117 L -366.55469 448.01367 C -366.62332 461.27025 -377.49557 471.97151 -390.82227 471.90234 C -404.14896 471.83333 -414.90863 461.02025 -414.83984 447.76367 L -463.125 447.51367 C -476.45173 447.44466 -487.32379 458.14772 -487.39258 471.4043 L -487.51367 494.91992 L -465.22852 494.91992 A 24.04025 24.531656 0 0 1 -463.54102 494.85938 A 24.04025 24.531656 0 0 1 -439.5 519.39062 A 24.04025 24.531656 0 0 1 -463.54102 543.92188 A 24.04025 24.531656 0 0 1 -465.49414 543.83984 L -606.67773 543.83984 L -606.67773 543.75977 A 24.04025 24.465805 0 0 1 -607.81836 543.78906 A 24.04025 24.465805 0 0 1 -631.85938 519.32227 A 24.04025 24.465805 0 0 1 -607.81836 494.85742 A 24.04025 24.465805 0 0 1 -606.10156 494.91992 L -584.08789 494.91992 L -583.83789 446.88867 C -583.56323 393.83782 -540.10093 351.05008 -486.76953 351.32617 L -414.3418 351.70117 C -414.2732 338.44458 -403.40286 327.74153 -390.07617 327.81055 z M -584.46094 556.27539 L -487.88867 556.77539 L -488.26172 628.82227 C -488.53641 681.8722 -531.99868 724.66067 -585.33008 724.38477 L -633.61523 724.13477 C -633.68387 737.39135 -644.55616 748.09456 -657.88281 748.02539 C -671.20954 747.95641 -681.96918 737.14135 -681.90039 723.88477 L -681.40234 627.82227 C -681.33371 614.56569 -670.46341 603.86248 -657.13672 603.93164 C -643.81007 604.00062 -633.0484 614.81565 -633.11719 628.07227 L -608.97461 628.19727 C -595.64792 628.26632 -584.77777 617.56326 -584.70898 604.30664 L -584.46094 556.27539 z "
       style="fill:#ffffff;stroke-width:0.999999"
       id="path30" />
    <text
       xml:space="preserve"
       style="font-style:normal;font-weight:normal;font-size:10.5833px;line-height:1.25;font-family:sans-serif;fill:#000000;fill-opacity:1;stroke:none;stroke-width:0.264583"
       x="-76.8731"
       y="150.32117"
       id="text62"><tspan
         sodipodi:role="line"
         id="tspan60"
         x="-76.8731"
         y="150.32117"
         style="font-style:normal;font-variant:normal;font-weight:normal;font-stretch:normal;font-size:50.8px;font-family:Baskerville;-inkscape-font-specification:Baskerville;stroke-width:0.264583" /></text>
    <text
       id="text28"
       y="198.56392"
       x="-38.9408"
       style="font-style:normal;font-weight:normal;font-size:158.89799999999999613px;line-height:1.25;font-family:sans-serif;fill:#ffffff;fill-opacity:1;stroke:none;stroke-width:3.97245;"
       xml:space="preserve"><tspan
         style="font-style:normal;font-variant:normal;font-weight:normal;font-stretch:normal;font-family:Nunito;-inkscape-font-specification:Nunito;stroke-width:3.97245;fill:#ffffff;"
         y="198.56392"
         x="-38.9408"
         id="tspan26"
         sodipodi:role="line">fritz2</tspan></text>
  </g>
</svg>
