<?xml version="1.0" standalone="no"?>
<!DOCTYPE svg PUBLIC "-//W3C//DTD SVG 20010904//EN"
 "http://www.w3.org/TR/2001/REC-SVG-20010904/DTD/svg10.dtd">
<svg version="1.0" xmlns="http://www.w3.org/2000/svg"
 width="700.000000pt" height="700.000000pt" viewBox="0 0 700.000000 700.000000"
 preserveAspectRatio="xMidYMid meet">
<metadata>
Created by potrace 1.14, written by Peter Selinger 2001-2017
</metadata>
<g transform="translate(0.000000,700.000000) scale(0.100000,-0.100000)"
fill="#000000" stroke="none">
<path d="M3280 6994 c-19 -2 -87 -9 -150 -15 -633 -59 -1297 -332 -1815 -745
-147 -117 -459 -431 -569 -574 -411 -530 -644 -1104 -728 -1795 -16 -133 -16
-590 0 -730 85 -720 358 -1359 807 -1890 111 -131 324 -342 451 -447 301 -248
673 -460 1037 -589 1153 -412 2422 -202 3372 558 144 115 373 339 494 483 451
537 715 1157 803 1885 16 135 16 591 0 730 -99 838 -447 1555 -1034 2131 -216
212 -402 357 -651 506 -428 257 -903 417 -1422 478 -92 11 -532 21 -595 14z
m1985 -899 c59 -28 102 -72 137 -138 l23 -42 0 -680 0 -680 -25 -50 c-55 -112
-153 -175 -269 -175 -75 0 -122 15 -173 53 -60 46 -95 101 -114 180 l-17 68
-331 -3 -331 -3 -51 -27 c-61 -32 -108 -83 -140 -152 -22 -48 -24 -63 -24
-228 l0 -176 183 -4 c165 -3 186 -6 224 -26 63 -33 106 -74 139 -134 26 -48
29 -62 29 -148 0 -80 -4 -102 -23 -138 -29 -54 -90 -115 -141 -142 -40 -20
-53 -20 -999 -20 l-958 0 -51 26 c-61 30 -117 88 -147 153 -30 67 -29 187 4
256 31 62 89 121 149 148 40 19 67 22 224 25 172 4 177 4 182 25 2 12 6 189 8
392 4 391 5 400 59 565 26 83 97 224 150 303 58 86 179 210 273 280 102 76
274 160 401 194 l99 27 541 4 540 3 12 57 c40 194 241 294 417 207z m-1325
-3292 c0 -258 -5 -511 -10 -563 -33 -314 -200 -621 -438 -809 -145 -114 -277
-181 -452 -229 -93 -25 -102 -26 -486 -30 l-390 -3 -12 -58 c-58 -280 -418
-324 -554 -68 l-23 42 -3 624 c-3 634 1 728 34 797 28 59 102 128 159 147 55
19 142 22 197 7 90 -25 179 -128 199 -231 l12 -59 161 0 c185 0 234 10 308 64
34 26 55 53 80 103 l33 68 3 332 3 333 590 0 589 0 0 -467z"/>
</g>
</svg>
