<?xml version="1.0" encoding="UTF-8" standalone="no"?>
<svg
        xmlns:dc="http://purl.org/dc/elements/1.1/"
        xmlns:cc="http://creativecommons.org/ns#"
        xmlns:rdf="http://www.w3.org/1999/02/22-rdf-syntax-ns#"
        xmlns="http://www.w3.org/2000/svg"
        xmlns:sodipodi="http://sodipodi.sourceforge.net/DTD/sodipodi-0.dtd"
        xmlns:inkscape="http://www.inkscape.org/namespaces/inkscape"
        inkscape:version="1.0rc1 (09960d6, 2020-04-09)"
        sodipodi:docname="fritz_logo_black.svg"
        width="532.01392mm"
        height="148.03801mm"
        viewBox="0 0 532.01392 148.03801"
        version="1.1"
        id="svg8">
  <sodipodi:namedview
          inkscape:current-layer="svg8"
          inkscape:window-maximized="0"
          inkscape:window-y="0"
          inkscape:window-x="0"
          inkscape:cy="279.75687"
          inkscape:cx="1005.3806"
          inkscape:zoom="0.28844797"
          showgrid="false"
          id="namedview979"
          inkscape:window-height="1050"
          inkscape:window-width="1680"
          inkscape:pageshadow="2"
          inkscape:pageopacity="0"
          guidetolerance="10"
          gridtolerance="10"
          objecttolerance="10"
          borderopacity="1"
          bordercolor="#666666"
          pagecolor="#ffffff"/>
  <defs
          id="defs2"/>
  <metadata
          id="metadata5">
    <rdf:RDF>
      <cc:Work
              rdf:about="">
        <dc:format>image/svg+xml</dc:format>
        <dc:type
                rdf:resource="http://purl.org/dc/dcmitype/StillImage"/>
        <dc:title/>
      </cc:Work>
    </rdf:RDF>
  </metadata>
  <g
          id="layer2"
          transform="translate(214.36779,-68.30486)"/>
  <path
          id="path30"
          style="fill:#333333;stroke-width:0.264583"
          d="M 75.63569,1.4806133e-5 A 75.731422,74.018906 0 0 0 7.5696619e-8,74.019268 75.731422,74.018906 0 0 0 75.731808,148.038 75.731422,74.018906 0 0 0 151.4631,74.019268 75.731422,74.018906 0 0 0 75.731808,1.4806133e-5 a 75.731422,74.018906 0 0 0 -0.09612,0 z M 111.16014,18.428347 c 3.52601,0.01826 6.37281,2.879733 6.35465,6.387206 l -0.13126,25.416536 c -0.0181,3.50747 -2.89477,6.338845 -6.4208,6.320544 -3.52602,-0.01826 -6.37285,-2.87922 -6.35465,-6.38669 l -12.775445,-0.06615 c -3.52603,-0.01826 -6.402596,2.813592 -6.420797,6.321062 l -0.03204,6.221842 h 5.896279 a 6.3606494,6.4906672 0 0 1 0.446484,-0.01601 6.3606494,6.4906672 0 0 1 6.360853,6.490557 6.3606494,6.4906672 0 0 1 -6.360853,6.490563 6.3606494,6.4906672 0 0 1 -0.516763,-0.0217 H 53.850976 v -0.02119 a 6.3606494,6.4732442 0 0 1 -0.301792,0.0078 6.3606494,6.4732442 0 0 1 -6.360853,-6.473505 6.3606494,6.4732442 0 0 1 6.360853,-6.472991 6.3606494,6.4732442 0 0 1 0.454237,0.01654 h 5.82445 l 0.06615,-12.708268 c 0.07267,-14.03637 11.57207,-25.357293 25.68267,-25.284244 l 19.163169,0.09922 c 0.0182,-3.507473 2.89426,-6.339322 6.42028,-6.32106 z m -51.430972,60.447988 25.551413,0.132292 -0.0987,19.062403 c -0.07268,14.03613 -11.57207,25.35724 -25.68267,25.28424 l -12.775445,-0.0661 c -0.01815,3.50747 -2.894788,6.33936 -6.420798,6.32106 -3.52603,-0.0183 -6.372852,-2.87974 -6.354651,-6.38721 L 34.08009,97.806447 c 0.01815,-3.50747 2.894258,-6.339361 6.420278,-6.321063 3.52601,0.01826 6.373368,2.879728 6.355168,6.387209 l 6.387724,0.03307 c 3.52602,0.01826 6.40208,-2.813582 6.420281,-6.321063 z"
          inkscape:connector-curvature="0"/>
  <text
          id="text62"
          y="82.016304"
          x="137.49469"
          style="font-style:normal;font-weight:normal;font-size:10.5833px;line-height:1.25;font-family:sans-serif;fill:#333333;fill-opacity:1;stroke:none;stroke-width:0.264583"
          xml:space="preserve"><tspan
       style="font-style:normal;font-variant:normal;font-weight:normal;font-stretch:normal;font-size:50.8px;font-family:Baskerville;-inkscape-font-specification:Baskerville;fill:#333333;stroke-width:0.264583"
       y="82.016304"
       x="137.49469"
       id="tspan60" /></text>
  <g
          style="font-style:normal;font-weight:normal;font-size:158.898px;line-height:1.25;font-family:sans-serif;fill:#333333;fill-opacity:1;stroke:none;stroke-width:3.97245"
          id="text28"
          aria-label="fritz2">
    <path
            id="path986"
            style="font-style:normal;font-variant:normal;font-weight:normal;font-stretch:normal;font-family:Nunito;-inkscape-font-specification:Nunito;fill:#333333;stroke-width:3.97245"
            d="m 219.91843,26.339775 q -9.05719,0.635592 -13.66523,5.720328 -4.60804,4.925838 -4.60804,15.254207 v 5.879226 h 19.22665 q 2.06568,0 3.17796,1.112286 1.11229,1.112286 1.11229,2.860164 0,1.747878 -1.11229,2.860164 -1.11228,0.953388 -3.17796,0.953388 h -19.22665 v 65.148182 q 0,2.22457 -1.43009,3.65465 -1.43008,1.27118 -3.49575,1.27118 -2.22457,0 -3.49576,-1.27118 -1.27118,-1.27118 -1.27118,-3.65465 V 60.979538 h -12.07625 q -1.90678,0 -3.01906,-0.953388 -1.11229,-1.112286 -1.11229,-2.860164 0,-1.747878 1.11229,-2.860164 1.11228,-1.112286 3.01906,-1.112286 h 12.07625 v -3.97245 q 0,-13.983023 6.67371,-21.927923 6.83262,-7.9449 19.70336,-8.898288 l 4.13134,-0.317796 q 6.19703,-0.476694 6.19703,3.654654 0,3.813552 -4.60805,4.290246 z"/>
    <path
            id="path988"
            style="font-style:normal;font-variant:normal;font-weight:normal;font-stretch:normal;font-family:Nunito;-inkscape-font-specification:Nunito;fill:#333333;stroke-width:3.97245"
            d="m 274.01575,51.604556 q 3.01906,-0.158898 4.29024,0.79449 1.27119,0.953388 1.27119,3.17796 0,3.97245 -4.76694,4.449144 l -4.76694,0.476694 q -11.28176,1.112286 -16.84319,8.103798 -5.40253,6.991511 -5.40253,16.366493 v 41.154585 q 0,2.38347 -1.27119,3.65465 -1.27118,1.27118 -3.49575,1.27118 -2.22457,0 -3.65466,-1.27118 -1.27118,-1.27118 -1.27118,-3.65465 V 56.530394 q 0,-2.38347 1.27118,-3.654654 1.43009,-1.271184 3.65466,-1.271184 2.06567,0 3.33685,1.271184 1.27119,1.271184 1.27119,3.495756 v 10.32837 q 6.51482,-13.665228 24.15249,-14.936412 z"/>
    <path
            id="path990"
            style="font-style:normal;font-variant:normal;font-weight:normal;font-stretch:normal;font-family:Nunito;-inkscape-font-specification:Nunito;fill:#333333;stroke-width:3.97245"
            d="m 297.03113,131.05355 q -2.22458,0 -3.65466,-1.27118 -1.27118,-1.27118 -1.27118,-3.65465 V 56.530394 q 0,-2.38347 1.27118,-3.654654 1.43008,-1.271184 3.65466,-1.271184 2.22457,0 3.49575,1.271184 1.27119,1.271184 1.27119,3.654654 v 69.597326 q 0,2.38347 -1.27119,3.65465 -1.27118,1.27118 -3.49575,1.27118 z m 0,-97.404467 q -3.17796,0 -5.24364,-1.906776 -1.90677,-1.906776 -1.90677,-4.925838 0,-3.17796 1.90677,-5.084736 2.06568,-1.906776 5.24364,-1.906776 3.17796,0 5.08473,1.906776 2.06568,1.906776 2.06568,5.084736 0,3.019062 -2.06568,4.925838 -1.90677,1.906776 -5.08473,1.906776 z"/>
    <path
            id="path992"
            style="font-style:normal;font-variant:normal;font-weight:normal;font-stretch:normal;font-family:Nunito;-inkscape-font-specification:Nunito;fill:#333333;stroke-width:3.97245"
            d="m 361.32275,122.94976 q 4.44915,0.47669 4.44915,4.13134 0,1.90678 -1.43009,3.01907 -1.43008,1.11228 -4.60804,0.95338 l -4.44914,-0.31779 q -12.07625,-0.79449 -17.95548,-7.30931 -5.72032,-6.67372 -5.72032,-20.18005 V 60.979538 h -12.07625 q -1.90678,0 -3.01906,-0.953388 -1.11229,-1.112286 -1.11229,-2.860164 0,-1.747878 1.11229,-2.860164 1.11228,-1.112286 3.01906,-1.112286 h 12.07625 V 33.490185 q 0,-2.38347 1.27118,-3.654654 1.27118,-1.271184 3.49576,-1.271184 2.22457,0 3.49575,1.271184 1.43008,1.271184 1.43008,3.654654 v 19.703351 h 19.22666 q 2.06568,0 3.17796,1.112286 1.11229,1.112286 1.11229,2.860164 0,1.747878 -1.11229,2.860164 -1.11228,0.953388 -3.17796,0.953388 H 341.3016 V 103.7231 q 0,9.85167 3.81356,14.14192 3.81355,4.13135 11.91735,4.76694 z"/>
    <path
            id="path994"
            style="font-style:normal;font-variant:normal;font-weight:normal;font-stretch:normal;font-family:Nunito;-inkscape-font-specification:Nunito;fill:#333333;stroke-width:3.97245"
            d="m 435.87321,122.31416 q 2.06568,0 3.17796,1.11229 1.11229,1.11229 1.11229,2.86016 0,1.74788 -1.27118,2.86017 -1.11229,1.11228 -3.01907,1.11228 h -56.56768 q -2.38347,0 -3.81355,-1.27118 -1.27119,-1.27118 -1.27119,-3.17796 0,-2.22457 1.58898,-3.97245 l 49.89397,-60.857932 h -47.3516 q -1.90678,0 -3.01906,-0.953388 -1.11229,-1.112286 -1.11229,-2.860164 0,-1.747878 1.11229,-2.860164 1.11228,-1.112286 3.01906,-1.112286 h 54.97871 q 2.38347,0 3.81355,1.271184 1.43008,1.271184 1.43008,3.17796 0,2.065674 -1.58898,3.813552 l -49.89397,60.857928 z"/>
    <path
            id="path996"
            style="font-style:normal;font-variant:normal;font-weight:normal;font-stretch:normal;font-family:Nunito;-inkscape-font-specification:Nunito;fill:#333333;stroke-width:3.97245"
            d="m 527.4059,121.67857 q 2.06567,0 3.33686,1.27119 1.27118,1.11228 1.27118,3.01906 0,4.29024 -4.60804,4.29024 h -63.2414 q -2.22458,0 -3.49576,-1.27118 -1.27118,-1.27118 -1.27118,-3.01906 0,-2.22457 1.58898,-3.81355 l 39.2478,-43.696953 q 8.4216,-9.692777 12.23515,-17.160983 3.81355,-7.468206 3.81355,-14.936412 0,-10.010573 -5.87923,-15.413105 -5.72032,-5.402532 -16.20759,-5.402532 -8.1038,0 -15.41311,3.019062 -7.15041,2.860164 -14.77751,9.216084 -1.74788,1.58898 -3.65466,1.58898 -1.27118,0 -2.22457,-1.271184 -0.95339,-1.271184 -0.95339,-3.019062 0,-2.701266 2.06568,-4.608042 6.35592,-6.197022 15.7309,-9.851676 9.37498,-3.654654 19.22666,-3.654654 14.77751,0 23.358,7.786002 8.58049,7.627104 8.58049,21.133433 0,9.692778 -4.44914,18.749964 -4.44914,9.057186 -14.61861,20.338943 l -33.52748,36.705435 z"/>
  </g>
</svg>
