<?xml version="1.0" encoding="UTF-8" standalone="no"?>
<svg viewBox="0 0 68 68" xmlns="http://www.w3.org/2000/svg">
    <path d="M33.957 0.0555806C15.2074 0.0792545 0.0204473 15.2698 0.0205518 34.0001C0.0205946 52.7471 15.2338 67.9445 34.0001 67.9444C52.7664 67.9444 67.9794 52.747 67.9794 34.0001C67.9795 15.2531 52.7665 0.0556139 34.0001 0.0555812C33.9857 0.0555701 33.9714 0.0555711 33.957 0.0555806ZM49.8962 8.50664C51.4783 8.51502 52.7556 9.82726 52.7474 11.4358L52.6885 23.0915C52.6803 24.7 51.3897 25.9985 49.8076 25.9901C48.2256 25.9817 46.9482 24.6697 46.9564 23.0612L41.2243 23.0309C39.6422 23.0225 38.3515 24.3212 38.3434 25.9297L38.329 28.7829L40.9746 28.7829C41.0412 28.778 41.1081 28.7756 41.1749 28.7756C42.7511 28.7755 44.0289 30.1082 44.0289 31.7521C44.0289 33.396 42.7511 34.7286 41.1749 34.7286C41.0975 34.7286 41.0202 34.7253 40.943 34.7187L24.1826 34.7187L24.1826 34.709C24.1375 34.7113 24.0923 34.7125 24.0472 34.7125C22.4709 34.7126 21.1931 33.3834 21.1931 31.7439C21.1932 30.1044 22.471 28.7754 24.0472 28.7754C24.1152 28.7754 24.1831 28.7779 24.251 28.783L26.8643 28.783L26.894 22.9551C26.9266 16.5181 32.0862 11.3265 38.4173 11.36L47.0155 11.4055C47.0237 9.79696 48.3141 8.4983 49.8962 8.50664ZM26.82 36.2275L38.2845 36.2882L38.2402 45.03C38.2076 51.4669 33.048 56.6586 26.7168 56.6252L20.9847 56.5948C20.9766 58.2033 19.6859 59.502 18.1038 59.4936C16.5217 59.4852 15.2444 58.173 15.2526 56.5645L15.3117 44.9087C15.3198 43.3002 16.6103 42.0016 18.1924 42.0099C19.7744 42.0183 21.052 43.3306 21.0438 44.9391L23.9099 44.9542C25.492 44.9626 26.7824 43.664 26.7906 42.0555L26.82 36.2275Z"
          fill="#f9f9f9" fill-rule="evenodd" opacity="1" stroke="none"/>
    <path d="M17.5007 59.3836C16.6968 59.1899 15.9484 58.5718 15.5738 57.7919L15.3517 57.3295L15.3303 51.2249C15.3164 47.2503 15.3367 44.936 15.3886 44.592C15.5434 43.5646 16.0919 42.7854 16.9718 42.3427C17.4327 42.1108 17.5413 42.0877 18.1652 42.0895C19.0417 42.0919 19.6123 42.3334 20.1725 42.9389C20.6406 43.4447 20.8346 43.8296 20.9532 44.4875L21.0463 45.0037L22.6149 45.0037C24.3098 45.0037 24.817 44.9264 25.3949 44.5798C25.8458 44.3094 26.3252 43.7787 26.5566 43.2939L26.7612 42.8652L26.8313 39.5796L26.9014 36.2941L32.5583 36.2941L38.2152 36.2941L38.2146 40.8628C38.2144 43.4777 38.1806 45.7294 38.1359 46.1282C37.8225 48.925 36.7706 51.1577 34.8349 53.1352C33.1427 54.8638 31.3172 55.8677 28.9531 56.3698C28.1868 56.5325 27.9031 56.5456 24.5481 56.5726L20.9622 56.6015L20.9149 56.9655C20.807 57.7966 20.1335 58.7484 19.376 59.1402C18.8138 59.431 18.0884 59.5251 17.5007 59.3836Z"
          fill="#333333" fill-rule="evenodd" opacity="1" stroke="none"/>
    <path d="M23.2241 34.542C22.7248 34.384 22.0921 33.902 21.775 33.4381C20.7494 31.9376 21.2899 29.8498 22.9042 29.0766C23.3327 28.8713 23.3726 28.8671 25.1095 28.8429L26.8785 28.8183L26.884 27.7542C26.887 27.1689 26.9181 25.4828 26.9531 24.0072C27.0115 21.548 27.0326 21.2562 27.2067 20.5078C27.7203 18.2995 28.6885 16.5025 30.2263 14.9035C31.6614 13.4111 33.2733 12.4324 35.2622 11.8454C36.6396 11.439 37.1168 11.4093 42.2667 11.4093L47.0216 11.4093L47.0701 11.099C47.1765 10.4189 47.4322 9.90709 47.9093 9.41945C48.6432 8.66937 49.5835 8.39181 50.5412 8.64256C51.6774 8.94009 52.5119 9.87161 52.6533 11.0004C52.6841 11.2467 52.6922 14.1952 52.6713 17.5527L52.6333 23.6573L52.4567 24.1041C52.2102 24.728 51.6389 25.3424 51.0121 25.6578C50.5529 25.8889 50.4426 25.9123 49.8197 25.9112C49.2374 25.9102 49.0674 25.8786 48.6983 25.7028C47.8146 25.282 47.2014 24.4626 47.0312 23.4753L46.9474 22.9886L43.7017 23.0119L40.4561 23.0351L39.9503 23.2897C39.3201 23.607 38.7506 24.2209 38.509 24.8434C38.3503 25.2524 38.3332 25.44 38.3073 27.0543L38.2789 28.8183L40.0921 28.8429C41.8871 28.8673 41.9095 28.8696 42.3247 29.0783C42.8067 29.3205 43.3196 29.8088 43.594 30.2867C44.4272 31.7377 43.8534 33.6445 42.3577 34.3951L41.9053 34.6221L32.7371 34.6366C25.0545 34.6488 23.513 34.6334 23.2241 34.542Z"
          fill="#333333" fill-rule="evenodd" opacity="1" stroke="none"/>
</svg>
