<?xml version="1.0" encoding="UTF-8" standalone="no"?>
<!DOCTYPE svg PUBLIC "-//W3C//DTD SVG 1.1//EN" "http://www.w3.org/Graphics/SVG/1.1/DTD/svg11.dtd">
<!-- Created with Vectornator (http://vectornator.io/) -->
<svg height="100%" stroke-miterlimit="10"
     style="fill-rule:nonzero;clip-rule:evenodd;stroke-linecap:round;stroke-linejoin:round;" version="1.1"
     viewBox="0 0 1024 1024" width="100%" xml:space="preserve" xmlns="http://www.w3.org/2000/svg">
<defs/>
<g id="Untitled">
<g opacity="1">
<path d="M808.171 267.08L808.171 493.228L890.406 493.228L890.406 267.08C890.406 193.274 830.58 133.448 756.774 133.448L520.347 133.448L520.347 215.683L756.774 215.683C785.155 215.683 808.171 238.699 808.171 267.08Z" fill="#4b5563" fill-rule="evenodd" opacity="1" stroke="none"/>
<path d="M787.612 462.39L910.965 462.39L910.965 503.507L787.612 503.507L787.612 462.39ZM787.612 297.919L910.965 297.919L910.965 339.036L787.612 339.036L787.612 297.919ZM520.347 112.889L561.465 112.889L561.465 236.242L520.347 236.242L520.347 112.889ZM684.818 112.889L725.936 112.889L725.936 236.242L684.818 236.242L684.818 112.889Z" fill="#4b5563" fill-rule="evenodd" opacity="1" stroke="none"/>
<path d="M633.421 297.919L520.347 297.919C520.347 325.827 520.347 352.533 520.347 380.154L633.421 380.154C643.7 380.154 643.7 385.613 643.7 390.434L643.7 493.228L725.936 493.228L725.936 390.434C725.936 323.031 669.183 297.919 633.421 297.919Z" fill="#0891b2" fill-rule="evenodd" opacity="1" stroke="none"/>
<path d="M623.141 462.39L746.494 462.39L746.494 503.507L623.141 503.507L623.141 462.39ZM520.347 277.36L561.465 277.36L561.465 400.713L520.347 400.713L520.347 277.36Z" fill="#0891b2" fill-rule="evenodd" opacity="1" stroke="none"/>
<path d="M561.465 133.448L582.024 133.448L582.024 215.683L561.465 215.683L561.465 133.448ZM725.936 133.448L746.494 133.448L746.494 215.683L725.936 215.683L725.936 133.448Z" fill="#374151" fill-rule="evenodd" opacity="1" stroke="none"/>
<path d="M890.406 441.831L890.406 462.39L808.171 462.39L808.171 441.831L890.406 441.831Z" fill="#374151" fill-rule="evenodd" opacity="1" stroke="none"/>
<path d="M890.406 277.36L890.406 297.919L808.171 297.919L808.171 277.36L890.406 277.36Z" fill="#374151" fill-rule="evenodd" opacity="1" stroke="none"/>
<path d="M561.465 297.919L582.024 297.919L582.024 380.154L561.465 380.154L561.465 297.919ZM643.7 441.831L725.936 441.831L725.936 462.39L643.7 462.39L643.7 441.831Z" fill="#056f88" fill-rule="evenodd" opacity="1" stroke="none"/>
</g>
<g opacity="1">
<path d="M756.577 808.222L530.43 807.741L530.255 889.976L756.402 890.458C830.208 890.615 890.161 830.916 890.319 757.11L890.822 520.683L808.586 520.508L808.083 756.935C808.023 785.316 784.958 808.283 756.577 808.222Z" fill="#4b5563" fill-rule="evenodd" opacity="1" stroke="none"/>
<path d="M561.312 787.248L561.049 910.601L519.932 910.513L520.194 787.161L561.312 787.248ZM725.782 787.598L725.52 910.951L684.402 910.863L684.665 787.511L725.782 787.598ZM911.38 520.727L911.293 561.845L787.94 561.582L788.028 520.465L911.38 520.727ZM911.03 685.198L910.943 726.315L787.59 726.053L787.678 684.935L911.03 685.198Z" fill="#4b5563" fill-rule="evenodd" opacity="1" stroke="none"/>
<path d="M726.11 633.407L726.351 520.333C698.443 520.274 671.737 520.217 644.116 520.158L643.875 633.232C643.853 643.511 638.395 643.5 633.574 643.489L530.78 643.271L530.605 725.506L633.399 725.725C700.801 725.868 726.034 669.169 726.11 633.407Z" fill="#0891b2" fill-rule="evenodd" opacity="1" stroke="none"/>
<path d="M561.662 622.778L561.399 746.13L520.282 746.043L520.544 622.69L561.662 622.778ZM746.91 520.377L746.822 561.495L623.47 561.232L623.557 520.115L746.91 520.377Z" fill="#0891b2" fill-rule="evenodd" opacity="1" stroke="none"/>
<path d="M890.734 561.801L890.69 582.36L808.455 582.185L808.499 561.626L890.734 561.801ZM890.384 726.272L890.34 746.83L808.105 746.655L808.149 726.097L890.384 726.272Z" fill="#374151" fill-rule="evenodd" opacity="1" stroke="none"/>
<path d="M581.652 890.086L561.093 890.042L561.268 807.807L581.827 807.851L581.652 890.086Z" fill="#374151" fill-rule="evenodd" opacity="1" stroke="none"/>
<path d="M746.122 890.436L725.564 890.392L725.739 808.157L746.297 808.201L746.122 890.436Z" fill="#374151" fill-rule="evenodd" opacity="1" stroke="none"/>
<path d="M726.264 561.451L726.22 582.01L643.985 581.835L644.028 561.276L726.264 561.451ZM582.177 643.38L582.002 725.615L561.443 725.572L561.618 643.336L582.177 643.38Z" fill="#056f88" fill-rule="evenodd" opacity="1" stroke="none"/>
</g>
<g opacity="1">
<path d="M266.781 215.733L492.929 215.458L492.829 133.223L266.681 133.498C192.875 133.588 133.122 193.487 133.211 267.293L133.499 503.72L215.734 503.62L215.447 267.193C215.412 238.812 238.4 215.768 266.781 215.733Z" fill="#4b5563" fill-rule="evenodd" opacity="1" stroke="none"/>
<path d="M462.115 236.055L461.965 112.702L503.083 112.652L503.233 236.005L462.115 236.055ZM297.645 236.255L297.495 112.902L338.612 112.852L338.762 236.205L297.645 236.255ZM112.94 503.745L112.89 462.627L236.243 462.477L236.293 503.595L112.94 503.745ZM112.74 339.274L112.69 298.156L236.043 298.006L236.093 339.124L112.74 339.274Z" fill="#4b5563" fill-rule="evenodd" opacity="1" stroke="none"/>
<path d="M297.832 390.446L297.97 503.52C325.878 503.486 352.584 503.453 380.205 503.42L380.067 390.346C380.055 380.067 385.513 380.06 390.334 380.054L493.129 379.929L493.029 297.694L390.234 297.819C322.832 297.901 297.789 354.684 297.832 390.446Z" fill="#0891b2" fill-rule="evenodd" opacity="1" stroke="none"/>
<path d="M462.315 400.525L462.165 277.172L503.283 277.122L503.433 400.475L462.315 400.525ZM277.411 503.545L277.361 462.427L400.714 462.277L400.764 503.395L277.411 503.545Z" fill="#0891b2" fill-rule="evenodd" opacity="1" stroke="none"/>
<path d="M133.449 462.602L133.424 442.043L215.659 441.943L215.684 462.502L133.449 462.602ZM133.249 298.131L133.224 277.572L215.459 277.472L215.484 298.031L133.249 298.131Z" fill="#374151" fill-rule="evenodd" opacity="1" stroke="none"/>
<path d="M441.431 133.285L461.99 133.26L462.09 215.496L441.531 215.521L441.431 133.285Z" fill="#374151" fill-rule="evenodd" opacity="1" stroke="none"/>
<path d="M276.961 133.486L297.52 133.461L297.62 215.696L277.061 215.721L276.961 133.486Z" fill="#374151" fill-rule="evenodd" opacity="1" stroke="none"/>
<path d="M297.92 462.402L297.895 441.843L380.13 441.743L380.155 462.302L297.92 462.402ZM441.732 379.992L441.631 297.756L462.19 297.731L462.29 379.967L441.732 379.992Z" fill="#056f88" fill-rule="evenodd" opacity="1" stroke="none"/>
</g>
<g opacity="1">
<path d="M215.333 756.41L215.921 530.264L133.685 530.05L133.098 756.197C132.907 830.003 192.577 889.984 266.383 890.176L502.81 890.79L503.023 808.554L266.597 807.941C238.216 807.867 215.26 784.792 215.333 756.41Z" fill="#4b5563" fill-rule="evenodd" opacity="1" stroke="none"/>
<path d="M236.399 561.155L113.047 560.835L113.153 519.717L236.506 520.037L236.399 561.155ZM235.972 725.625L112.62 725.305L112.726 684.188L236.079 684.508L235.972 725.625ZM502.756 911.348L461.639 911.242L461.959 787.889L503.076 787.996L502.756 911.348ZM338.286 910.921L297.168 910.815L297.489 787.462L338.606 787.569L338.286 910.921Z" fill="#4b5563" fill-rule="evenodd" opacity="1" stroke="none"/>
<path d="M390.163 726.026L503.237 726.319C503.309 698.411 503.378 671.705 503.45 644.084L390.377 643.791C380.097 643.764 380.112 638.306 380.124 633.484L380.391 530.691L298.156 530.477L297.889 633.271C297.714 700.673 354.401 725.933 390.163 726.026Z" fill="#0891b2" fill-rule="evenodd" opacity="1" stroke="none"/>
<path d="M400.87 561.582L277.517 561.262L277.624 520.144L400.976 520.465L400.87 561.582ZM503.183 746.878L462.066 746.771L462.386 623.419L503.503 623.525L503.183 746.878Z" fill="#0891b2" fill-rule="evenodd" opacity="1" stroke="none"/>
<path d="M461.692 890.683L441.133 890.629L441.347 808.394L461.905 808.448L461.692 890.683ZM297.222 890.256L276.663 890.202L276.876 807.967L297.435 808.021L297.222 890.256Z" fill="#374151" fill-rule="evenodd" opacity="1" stroke="none"/>
<path d="M133.552 581.447L133.605 560.888L215.841 561.102L215.787 581.66L133.552 581.447Z" fill="#374151" fill-rule="evenodd" opacity="1" stroke="none"/>
<path d="M133.125 745.917L133.178 725.358L215.414 725.572L215.36 746.131L133.125 745.917Z" fill="#374151" fill-rule="evenodd" opacity="1" stroke="none"/>
<path d="M462.119 726.213L441.56 726.159L441.774 643.924L462.333 643.977L462.119 726.213ZM380.257 582.088L298.022 581.874L298.076 561.315L380.311 561.529L380.257 582.088Z" fill="#056f88" fill-rule="evenodd" opacity="1" stroke="none"/>
</g>
</g>
</svg>
