<?xml version="1.0" encoding="UTF-8" standalone="no"?>
<!DOCTYPE svg PUBLIC "-//W3C//DTD SVG 1.1//EN" "http://www.w3.org/Graphics/SVG/1.1/DTD/svg11.dtd">
<!-- Created with Vectornator (http://vectornator.io/) -->
<svg height="100%" stroke-miterlimit="10"
     style="fill-rule:nonzero;clip-rule:evenodd;stroke-linecap:round;stroke-linejoin:round;" version="1.1"
     viewBox="0 0 1157 341" width="100%" xml:space="preserve" xmlns="http://www.w3.org/2000/svg">
<defs/>
<g id="surface1">
<path d="M7.125 1.125L145.094 1.125C145.488 1.125 145.879 1.16406 146.266 1.23828C146.648 1.31641 147.023 1.42969 147.391 1.58203C147.754 1.73047 148.098 1.91797 148.426 2.13672C148.754 2.35547 149.059 2.60156 149.336 2.88281C149.613 3.16016 149.863 3.46484 150.082 3.78906C150.301 4.11719 150.484 4.46484 150.637 4.82812C150.785 5.19141 150.898 5.56641 150.977 5.95312C151.055 6.33984 151.094 6.73047 151.094 7.125L151.094 332.555C151.094 332.945 151.055 333.336 150.977 333.723C150.898 334.109 150.785 334.484 150.637 334.848C150.484 335.211 150.301 335.559 150.082 335.887C149.863 336.215 149.613 336.516 149.336 336.793C149.059 337.074 148.754 337.32 148.426 337.539C148.098 337.758 147.754 337.945 147.391 338.094C147.023 338.246 146.648 338.359 146.266 338.437C145.879 338.512 145.488 338.551 145.094 338.551L7.125 338.551C6.73047 338.551 6.33984 338.512 5.95312 338.437C5.56641 338.359 5.19141 338.246 4.82812 338.094C4.46484 337.945 4.11719 337.758 3.78906 337.539C3.46484 337.32 3.16016 337.074 2.88281 336.793C2.60156 336.516 2.35547 336.215 2.13672 335.887C1.91797 335.559 1.73047 335.211 1.58203 334.848C1.42969 334.484 1.31641 334.109 1.23828 333.723C1.16406 333.336 1.125 332.945 1.125 332.555L1.125 7.125C1.125 6.73047 1.16406 6.33984 1.23828 5.95312C1.31641 5.56641 1.42969 5.19141 1.58203 4.82812C1.73047 4.46484 1.91797 4.11719 2.13672 3.78906C2.35547 3.46484 2.60156 3.16016 2.88281 2.88281C3.16016 2.60156 3.46484 2.35547 3.78906 2.13672C4.11719 1.91797 4.46484 1.73047 4.82812 1.58203C5.19141 1.42969 5.56641 1.31641 5.95312 1.23828C6.33984 1.16406 6.73047 1.125 7.125 1.125Z" fill="#0891b2" fill-rule="evenodd" opacity="1" stroke="none"/>
<g opacity="1">
<clipPath id="ClipPath">
<path d="M0 0L156 0L156 339.676L0 339.676L0 0Z" fill-rule="evenodd"/>
</clipPath>
<g clip-path="url(#ClipPath)">
<path d="M7.125 1.125L145.094 1.125C145.488 1.125 145.879 1.16406 146.266 1.23828C146.648 1.31641 147.023 1.42969 147.391 1.58203C147.754 1.73047 148.098 1.91797 148.426 2.13672C148.754 2.35547 149.059 2.60156 149.336 2.88281C149.613 3.16016 149.863 3.46484 150.082 3.78906C150.301 4.11719 150.484 4.46484 150.637 4.82813C150.785 5.19141 150.898 5.56641 150.977 5.95313C151.055 6.33984 151.094 6.73047 151.094 7.125L151.094 332.555C151.094 332.945 151.055 333.336 150.977 333.723C150.898 334.109 150.785 334.484 150.637 334.848C150.484 335.211 150.301 335.559 150.082 335.887C149.863 336.215 149.613 336.516 149.336 336.793C149.059 337.074 148.754 337.32 148.426 337.539C148.098 337.758 147.754 337.945 147.391 338.094C147.023 338.246 146.648 338.359 146.266 338.438C145.879 338.512 145.488 338.551 145.094 338.551L7.125 338.551C6.73047 338.551 6.33984 338.512 5.95313 338.438C5.56641 338.359 5.19141 338.246 4.82813 338.094C4.46484 337.945 4.11719 337.758 3.78906 337.539C3.46484 337.32 3.16016 337.074 2.88281 336.793C2.60156 336.516 2.35547 336.215 2.13672 335.887C1.91797 335.559 1.73047 335.211 1.58203 334.848C1.42969 334.484 1.31641 334.109 1.23828 333.723C1.16406 333.336 1.125 332.945 1.125 332.555L1.125 7.125C1.125 6.73047 1.16406 6.33984 1.23828 5.95313C1.31641 5.56641 1.42969 5.19141 1.58203 4.82813C1.73047 4.46484 1.91797 4.11719 2.13672 3.78906C2.35547 3.46484 2.60156 3.16016 2.88281 2.88281C3.16016 2.60156 3.46484 2.35547 3.78906 2.13672C4.11719 1.91797 4.46484 1.73047 4.82813 1.58203C5.19141 1.42969 5.56641 1.31641 5.95313 1.23828C6.33984 1.16406 6.73047 1.125 7.125 1.125Z" fill="none" fill-rule="evenodd" opacity="1" stroke="#4a5461" stroke-linecap="butt" stroke-linejoin="miter" stroke-width="0.749838"/>
</g>
</g>
<path d="M35.9523 185.616C34.5461 185.616 33.1633 185.495 31.8117 185.257C30.4562 185.019 29.2023 184.675 28.0461 184.226C26.8976 183.769 25.8625 183.194 24.9367 182.507C24.5695 182.237 24.3195 181.929 24.1867 181.585C24.05 181.241 24.0187 180.897 24.0929 180.554C24.1633 180.21 24.3156 179.921 24.5461 179.679C24.7726 179.44 25.05 179.304 25.3742 179.272C25.7062 179.241 26.0656 179.347 26.4523 179.585C27.8039 180.546 29.2492 181.241 30.7804 181.679C32.3117 182.116 34.0344 182.335 35.9523 182.335C38.6476 182.335 40.6476 181.835 41.9523 180.835C43.2531 179.827 43.9054 178.499 43.9054 176.851C43.9054 175.499 43.4289 174.44 42.4836 173.679C41.5461 172.909 39.9679 172.3 37.7492 171.851L33.0773 170.897C30.2531 170.304 28.1437 169.327 26.7492 167.96C25.3508 166.597 24.6554 164.772 24.6554 162.491C24.6554 161.085 24.9406 159.804 25.5148 158.647C26.0851 157.491 26.8781 156.503 27.8898 155.679C28.9094 154.858 30.1242 154.222 31.5304 153.772C32.9445 153.315 34.507 153.085 36.2179 153.085C38.1125 153.085 39.8742 153.351 41.4992 153.882C43.132 154.405 44.6125 155.19 45.9367 156.241C46.2687 156.515 46.4914 156.819 46.6086 157.163C46.7336 157.507 46.7492 157.843 46.6554 158.163C46.5617 158.476 46.3976 158.737 46.1711 158.944C45.9523 159.155 45.6711 159.272 45.3273 159.304C44.9836 159.335 44.6008 159.218 44.1867 158.944C42.9875 158.038 41.7414 157.39 40.4523 156.991C39.1594 156.585 37.7336 156.382 36.1711 156.382C34.5851 156.382 33.2179 156.624 32.0617 157.101C30.9054 157.581 30.0031 158.28 29.3586 159.194C28.7101 160.101 28.3898 161.155 28.3898 162.351C28.3898 163.8 28.8312 164.944 29.7179 165.788C30.6008 166.624 32.05 167.233 34.0617 167.616L38.7336 168.616C41.7648 169.241 44.0031 170.194 45.4523 171.476C46.9094 172.749 47.6398 174.476 47.6398 176.663C47.6398 177.987 47.3664 179.206 46.8273 180.319C46.2961 181.425 45.5187 182.374 44.4992 183.163C43.4758 183.956 42.2492 184.565 40.8117 184.991C39.3742 185.405 37.7531 185.616 35.9523 185.616Z" fill="#f5f5f5" fill-rule="evenodd" opacity="1" stroke="none"/>
<path d="M61.547 185.616C59.836 185.616 58.4064 185.308 57.2501 184.694C56.0939 184.081 55.2267 183.179 54.6564 181.991C54.0939 180.804 53.8126 179.358 53.8126 177.647L53.8126 166.179L50.797 166.179C50.2853 166.179 49.8946 166.054 49.6251 165.804C49.3556 165.546 49.2189 165.19 49.2189 164.741C49.2189 164.296 49.3556 163.952 49.6251 163.71C49.8946 163.472 50.2853 163.351 50.797 163.351L53.8126 163.351L53.8126 158.179C53.8126 157.577 53.9728 157.116 54.297 156.804C54.629 156.491 55.0821 156.335 55.6564 156.335C56.2267 156.335 56.672 156.491 56.9845 156.804C57.297 157.116 57.4532 157.577 57.4532 158.179L57.4532 163.351L63.1251 163.351C63.6329 163.351 64.0235 163.472 64.297 163.71C64.5665 163.952 64.7032 164.296 64.7032 164.741C64.7032 165.19 64.5665 165.546 64.297 165.804C64.0235 166.054 63.6329 166.179 63.1251 166.179L57.4532 166.179L57.4532 177.288C57.4532 178.999 57.8126 180.296 58.5314 181.179C59.2501 182.065 60.422 182.507 62.047 182.507C62.6173 182.507 63.1017 182.452 63.5001 182.335C63.9064 182.21 64.2423 182.147 64.5157 182.147C64.7853 182.116 65.0079 182.21 65.1876 182.429C65.3751 182.64 65.4689 182.999 65.4689 183.507C65.4689 183.862 65.3985 184.19 65.2657 184.491C65.129 184.796 64.8946 185.003 64.5626 185.116C64.2071 185.241 63.7345 185.354 63.1407 185.46C62.5548 185.562 62.0235 185.616 61.547 185.616Z" fill="#f5f5f5" fill-rule="evenodd" opacity="1" stroke="none"/>
<g opacity="1">
<path d="M77.3811 185.616C75.2561 185.616 73.4124 185.155 71.8499 184.226C70.2952 183.288 69.0882 181.976 68.2249 180.288C67.3694 178.593 66.9436 176.585 66.9436 174.272C66.9436 172.534 67.1819 170.972 67.6624 169.585C68.1507 168.19 68.8577 166.999 69.7874 166.007C70.7132 165.019 71.8108 164.265 73.0843 163.741C74.3655 163.21 75.7952 162.944 77.3811 162.944C79.5139 162.944 81.3577 163.409 82.9124 164.335C84.4749 165.265 85.6819 166.577 86.5374 168.272C87.3889 169.972 87.8186 171.972 87.8186 174.272C87.8186 176.015 87.5764 177.577 87.0999 178.96C86.6194 180.335 85.9163 181.53 84.9905 182.538C84.0608 183.538 82.9593 184.304 81.678 184.835C80.4046 185.354 78.9749 185.616 77.3811 185.616ZM77.3811 182.694C78.7327 182.694 79.9202 182.366 80.9436 181.71C81.9632 181.046 82.7483 180.081 83.303 178.819C83.8538 177.562 84.1311 176.046 84.1311 174.272C84.1311 171.546 83.5218 169.46 82.303 168.022C81.0921 166.585 79.4514 165.866 77.3811 165.866C76.0061 165.866 74.8108 166.19 73.803 166.835C72.803 167.483 72.0257 168.429 71.4749 169.679C70.9202 170.921 70.6468 172.452 70.6468 174.272C70.6468 176.983 71.26 179.065 72.4905 180.522C73.7171 181.972 75.3499 182.694 77.3811 182.694Z" fill="#f5f5f5" fill-rule="evenodd" opacity="1" stroke="none"/>
<path d="M95.1613 185.522C94.5559 185.522 94.0988 185.358 93.7863 185.038C93.4738 184.706 93.3176 184.237 93.3176 183.632L93.3176 164.882C93.3176 164.28 93.4621 163.819 93.7551 163.507C94.0559 163.194 94.4934 163.038 95.0676 163.038C95.6379 163.038 96.0832 163.194 96.3957 163.507C96.7082 163.819 96.8645 164.28 96.8645 164.882L96.8645 168.522L96.4113 168.522C96.8996 166.753 97.8176 165.39 99.1613 164.429C100.513 163.472 102.181 162.96 104.161 162.897C104.607 162.866 104.966 162.968 105.239 163.194C105.509 163.413 105.661 163.796 105.693 164.335C105.712 164.847 105.587 165.253 105.318 165.554C105.056 165.858 104.638 166.034 104.068 166.085L103.349 166.179C101.306 166.358 99.7395 167.007 98.6457 168.132C97.552 169.257 97.0051 170.8 97.0051 172.757L97.0051 183.632C97.0051 184.237 96.841 184.706 96.5207 185.038C96.2082 185.358 95.7551 185.522 95.1613 185.522Z" fill="#f5f5f5" fill-rule="evenodd" opacity="1" stroke="none"/>
</g>
<path d="M118.998 185.616C116.693 185.616 114.709 185.159 113.045 184.241C111.377 183.327 110.084 182.03 109.17 180.351C108.252 178.675 107.795 176.663 107.795 174.319C107.795 172.038 108.24 170.054 109.139 168.366C110.045 166.671 111.283 165.343 112.857 164.382C114.428 163.425 116.252 162.944 118.326 162.944C119.795 162.944 121.111 163.194 122.279 163.694C123.455 164.187 124.455 164.894 125.279 165.819C126.099 166.749 126.732 167.874 127.17 169.194C127.607 170.519 127.826 172.003 127.826 173.647C127.826 174.128 127.689 174.483 127.42 174.71C127.146 174.929 126.756 175.038 126.248 175.038L110.592 175.038L110.592 172.663L125.389 172.663L124.67 173.241C124.67 171.628 124.428 170.257 123.951 169.132C123.471 168.007 122.771 167.147 121.857 166.554C120.939 165.952 119.795 165.647 118.42 165.647C116.889 165.647 115.592 166.003 114.529 166.71C113.467 167.409 112.662 168.382 112.123 169.632C111.58 170.874 111.31 172.315 111.31 173.96L111.31 174.241C111.31 176.991 111.974 179.093 113.31 180.538C114.642 181.976 116.537 182.694 118.998 182.694C120.017 182.694 121.029 182.562 122.029 182.288C123.037 182.019 124.021 181.565 124.982 180.929C125.408 180.671 125.795 180.546 126.139 180.554C126.482 180.565 126.756 180.671 126.967 180.866C127.174 181.065 127.314 181.312 127.389 181.601C127.459 181.882 127.428 182.19 127.295 182.522C127.17 182.847 126.908 183.128 126.514 183.366C125.521 184.085 124.349 184.644 122.998 185.038C121.654 185.421 120.318 185.616 118.998 185.616Z" fill="#f5f5f5" fill-rule="evenodd" opacity="1" stroke="none"/>
<path d="M1011.91 1.125L1149.87 1.125C1150.27 1.125 1150.66 1.16406 1151.05 1.23828C1151.43 1.31641 1151.81 1.42969 1152.17 1.58203C1152.54 1.73047 1152.88 1.91797 1153.21 2.13672C1153.54 2.35547 1153.84 2.60156 1154.12 2.88281C1154.4 3.16016 1154.64 3.46484 1154.86 3.78906C1155.08 4.11719 1155.27 4.46484 1155.42 4.82812C1155.57 5.19141 1155.68 5.56641 1155.76 5.95312C1155.84 6.33984 1155.87 6.73047 1155.87 7.125L1155.87 332.555C1155.87 332.945 1155.84 333.336 1155.76 333.723C1155.68 334.109 1155.57 334.484 1155.42 334.848C1155.27 335.211 1155.08 335.559 1154.86 335.887C1154.64 336.215 1154.4 336.516 1154.12 336.793C1153.84 337.074 1153.54 337.32 1153.21 337.539C1152.88 337.758 1152.54 337.945 1152.17 338.094C1151.81 338.246 1151.43 338.359 1151.05 338.437C1150.66 338.512 1150.27 338.551 1149.87 338.551L1011.91 338.551C1011.51 338.551 1011.12 338.512 1010.73 338.437C1010.35 338.359 1009.97 338.246 1009.61 338.094C1009.25 337.945 1008.9 337.758 1008.57 337.539C1008.25 337.32 1007.94 337.074 1007.66 336.793C1007.39 336.516 1007.14 336.215 1006.92 335.887C1006.7 335.559 1006.52 335.211 1006.36 334.848C1006.21 334.484 1006.1 334.109 1006.02 333.723C1005.95 333.336 1005.91 332.945 1005.91 332.555L1005.91 7.125C1005.91 6.73047 1005.95 6.33984 1006.02 5.95312C1006.1 5.56641 1006.21 5.19141 1006.36 4.82812C1006.52 4.46484 1006.7 4.11719 1006.92 3.78906C1007.14 3.46484 1007.39 3.16016 1007.66 2.88281C1007.94 2.60156 1008.25 2.35547 1008.57 2.13672C1008.9 1.91797 1009.25 1.73047 1009.61 1.58203C1009.97 1.42969 1010.35 1.31641 1010.73 1.23828C1011.12 1.16406 1011.51 1.125 1011.91 1.125Z" fill="#4a5461" fill-rule="evenodd" opacity="1" stroke="none"/>
<g opacity="1">
<clipPath id="ClipPath_2">
<path d="M1001 0L1157 0L1157 339.676L1001 339.676L1001 0Z" fill-rule="evenodd"/>
</clipPath>
<g clip-path="url(#ClipPath_2)">
<path d="M1011.91 1.125L1149.88 1.125C1150.27 1.125 1150.66 1.16406 1151.05 1.23828C1151.43 1.31641 1151.81 1.42969 1152.17 1.58203C1152.54 1.73047 1152.88 1.91797 1153.21 2.13672C1153.54 2.35547 1153.84 2.60156 1154.12 2.88281C1154.4 3.16016 1154.64 3.46484 1154.86 3.78906C1155.08 4.11719 1155.27 4.46484 1155.42 4.82813C1155.57 5.19141 1155.68 5.56641 1155.76 5.95313C1155.84 6.33984 1155.88 6.73047 1155.88 7.125L1155.88 332.555C1155.88 332.945 1155.84 333.336 1155.76 333.723C1155.68 334.109 1155.57 334.484 1155.42 334.848C1155.27 335.211 1155.08 335.559 1154.86 335.887C1154.64 336.215 1154.4 336.516 1154.12 336.793C1153.84 337.074 1153.54 337.32 1153.21 337.539C1152.88 337.758 1152.54 337.945 1152.17 338.094C1151.81 338.246 1151.43 338.359 1151.05 338.438C1150.66 338.512 1150.27 338.551 1149.88 338.551L1011.91 338.551C1011.51 338.551 1011.12 338.512 1010.73 338.438C1010.35 338.359 1009.97 338.246 1009.61 338.094C1009.25 337.945 1008.9 337.758 1008.57 337.539C1008.25 337.32 1007.94 337.074 1007.66 336.793C1007.39 336.516 1007.14 336.215 1006.92 335.887C1006.7 335.559 1006.52 335.211 1006.36 334.848C1006.21 334.484 1006.1 334.109 1006.02 333.723C1005.95 333.336 1005.91 332.945 1005.91 332.555L1005.91 7.125C1005.91 6.73047 1005.95 6.33984 1006.02 5.95313C1006.1 5.56641 1006.21 5.19141 1006.36 4.82813C1006.52 4.46484 1006.7 4.11719 1006.92 3.78906C1007.14 3.46484 1007.39 3.16016 1007.66 2.88281C1007.94 2.60156 1008.25 2.35547 1008.57 2.13672C1008.9 1.91797 1009.25 1.73047 1009.61 1.58203C1009.97 1.42969 1010.35 1.31641 1010.73 1.23828C1011.12 1.16406 1011.51 1.125 1011.91 1.125Z" fill="none" fill-rule="evenodd" opacity="1" stroke="#000000" stroke-linecap="butt" stroke-linejoin="miter" stroke-width="0.749838"/>
</g>
</g>
<path d="M1033.27 185.21C1032.62 185.21 1032.11 185.038 1031.76 184.694C1031.41 184.351 1031.24 183.847 1031.24 183.179L1031.24 155.522C1031.24 154.866 1031.41 154.366 1031.76 154.022C1032.11 153.671 1032.62 153.491 1033.27 153.491L1041.96 153.491C1047.09 153.491 1051.04 154.847 1053.82 157.554C1056.61 160.253 1058.01 164.179 1058.01 169.335C1058.01 171.909 1057.65 174.179 1056.95 176.147C1056.25 178.108 1055.2 179.765 1053.82 181.116C1052.45 182.472 1050.77 183.491 1048.79 184.179C1046.81 184.866 1044.53 185.21 1041.96 185.21L1033.27 185.21ZM1034.95 182.054L1041.68 182.054C1043.78 182.054 1045.61 181.788 1047.15 181.257C1048.69 180.718 1049.98 179.921 1051.01 178.866C1052.05 177.815 1052.82 176.487 1053.34 174.882C1053.84 173.28 1054.1 171.429 1054.1 169.335C1054.1 165.108 1053.06 161.937 1050.99 159.819C1048.93 157.706 1045.82 156.647 1041.68 156.647L1034.95 156.647L1034.95 182.054Z" fill="#f5f5f5" fill-rule="evenodd" opacity="1" stroke="none"/>
<path d="M1077.95 185.616C1075.02 185.616 1072.46 184.952 1070.28 183.616C1068.1 182.284 1066.42 180.405 1065.23 177.976C1064.06 175.538 1063.47 172.659 1063.47 169.335C1063.47 166.815 1063.8 164.562 1064.47 162.569C1065.15 160.569 1066.11 158.874 1067.38 157.476C1068.63 156.081 1070.16 155.003 1071.94 154.241C1073.73 153.472 1075.73 153.085 1077.95 153.085C1080.95 153.085 1083.54 153.749 1085.7 155.069C1087.88 156.394 1089.56 158.265 1090.73 160.679C1091.92 163.085 1092.52 165.956 1092.52 169.288C1092.52 171.812 1092.17 174.077 1091.48 176.085C1090.8 178.085 1089.82 179.796 1088.56 181.21C1087.3 182.616 1085.78 183.706 1084 184.476C1082.22 185.233 1080.2 185.616 1077.95 185.616ZM1077.95 182.335C1080.22 182.335 1082.15 181.827 1083.72 180.804C1085.3 179.784 1086.51 178.3 1087.34 176.351C1088.19 174.405 1088.61 172.065 1088.61 169.335C1088.61 165.222 1087.69 162.034 1085.84 159.772C1084 157.515 1081.37 156.382 1077.95 156.382C1075.73 156.382 1073.83 156.894 1072.25 157.913C1070.68 158.925 1069.47 160.397 1068.63 162.335C1067.79 164.272 1067.38 166.608 1067.38 169.335C1067.38 173.409 1068.3 176.597 1070.16 178.897C1072.02 181.19 1074.62 182.335 1077.95 182.335Z" fill="#f5f5f5" fill-rule="evenodd" opacity="1" stroke="none"/>
<path d="M1100.95 185.522C1100.4 185.522 1099.98 185.366 1099.68 185.054C1099.38 184.741 1099.23 184.3 1099.23 183.726L1099.23 154.976C1099.23 154.382 1099.38 153.937 1099.68 153.632C1099.98 153.331 1100.4 153.179 1100.95 153.179C1101.42 153.179 1101.8 153.28 1102.09 153.476C1102.37 153.675 1102.63 153.999 1102.87 154.444L1115.2 177.647L1113.85 177.647L1126.13 154.444C1126.37 153.999 1126.63 153.675 1126.9 153.476C1127.17 153.28 1127.56 153.179 1128.07 153.179C1128.58 153.179 1128.98 153.331 1129.27 153.632C1129.57 153.937 1129.73 154.382 1129.73 154.976L1129.73 183.726C1129.73 184.3 1129.58 184.741 1129.29 185.054C1129.01 185.366 1128.59 185.522 1128.02 185.522C1127.48 185.522 1127.06 185.366 1126.76 185.054C1126.45 184.741 1126.3 184.3 1126.3 183.726L1126.3 158.444L1127.38 158.444L1116.15 179.538C1115.94 179.937 1115.72 180.218 1115.49 180.382C1115.26 180.538 1114.94 180.616 1114.52 180.616C1114.11 180.616 1113.78 180.53 1113.54 180.351C1113.3 180.175 1113.09 179.905 1112.9 179.538L1101.52 158.397L1102.6 158.397L1102.6 183.726C1102.6 184.3 1102.45 184.741 1102.16 185.054C1101.88 185.366 1101.48 185.522 1100.95 185.522Z" fill="#f5f5f5" fill-rule="evenodd" opacity="1" stroke="none"/>
<path d="M998.41 203.582L753.961 203.582L690.977 271.066L753.961 338.551L998.41 338.551L998.41 203.582Z" fill="#c7c7c7" fill-rule="evenodd" opacity="1" stroke="none"/>
<g opacity="1">
<clipPath id="ClipPath_3">
<path d="M680 192L1010 192L1010 339.676L680 339.676L680 192Z" fill-rule="evenodd"/>
</clipPath>
<g clip-path="url(#ClipPath_3)">
<path d="M998.41 203.582L753.961 203.582L690.977 271.066L753.961 338.551L998.41 338.551L998.41 203.582Z" fill="none" fill-rule="evenodd" opacity="1" stroke="#bdbdbd" stroke-linecap="butt" stroke-linejoin="miter" stroke-width="0.749838"/>
</g>
</g>
<path d="M793.677 286.438C793.021 286.438 792.513 286.266 792.162 285.922C791.818 285.579 791.646 285.075 791.646 284.407L791.646 256.751C791.646 256.094 791.818 255.594 792.162 255.251C792.513 254.899 793.021 254.719 793.677 254.719L810.412 254.719C810.92 254.719 811.31 254.856 811.584 255.126C811.853 255.399 811.99 255.774 811.99 256.251C811.99 256.762 811.853 257.153 811.584 257.422C811.31 257.696 810.92 257.829 810.412 257.829L795.255 257.829L795.255 268.797L809.474 268.797C809.974 268.797 810.357 268.93 810.63 269.188C810.9 269.438 811.037 269.821 811.037 270.329C811.037 270.84 810.9 271.231 810.63 271.501C810.357 271.774 809.974 271.907 809.474 271.907L795.255 271.907L795.255 283.329L810.412 283.329C810.92 283.329 811.31 283.465 811.584 283.735C811.853 284.008 811.99 284.383 811.99 284.86C811.99 285.372 811.853 285.762 811.584 286.032C811.31 286.305 810.92 286.438 810.412 286.438L793.677 286.438Z" fill="#5c5c5c" fill-rule="evenodd" opacity="1" stroke="none"/>
<path d="M825.127 286.751C824.615 286.751 824.162 286.61 823.767 286.329C823.381 286.04 823.053 285.594 822.783 285.001L815.002 266.829C814.791 266.383 814.713 265.965 814.767 265.579C814.83 265.184 815.01 264.868 815.314 264.626C815.615 264.387 816.037 264.266 816.58 264.266C817.057 264.266 817.432 264.372 817.705 264.579C817.974 264.79 818.213 265.165 818.424 265.704L825.799 283.735L824.58 283.735L832.096 265.704C832.303 265.165 832.541 264.79 832.814 264.579C833.084 264.372 833.474 264.266 833.986 264.266C834.463 264.266 834.83 264.387 835.08 264.626C835.338 264.868 835.49 265.172 835.533 265.547C835.584 265.922 835.517 266.337 835.33 266.782L827.471 285.001C827.252 285.594 826.939 286.04 826.533 286.329C826.135 286.61 825.666 286.751 825.127 286.751Z" fill="#5c5c5c" fill-rule="evenodd" opacity="1" stroke="none"/>
<path d="M849.685 286.844C847.38 286.844 845.396 286.387 843.732 285.469C842.064 284.555 840.771 283.258 839.857 281.579C838.939 279.903 838.482 277.891 838.482 275.547C838.482 273.266 838.927 271.282 839.826 269.594C840.732 267.899 841.97 266.571 843.544 265.61C845.115 264.653 846.939 264.172 849.013 264.172C850.482 264.172 851.798 264.422 852.966 264.922C854.142 265.415 855.142 266.122 855.966 267.047C856.787 267.977 857.419 269.102 857.857 270.422C858.294 271.747 858.513 273.231 858.513 274.876C858.513 275.356 858.376 275.712 858.107 275.938C857.833 276.157 857.443 276.266 856.935 276.266L841.279 276.266L841.279 273.891L856.076 273.891L855.357 274.469C855.357 272.856 855.115 271.485 854.638 270.36C854.158 269.235 853.458 268.376 852.544 267.782C851.626 267.18 850.482 266.876 849.107 266.876C847.576 266.876 846.279 267.231 845.216 267.938C844.154 268.637 843.349 269.61 842.81 270.86C842.267 272.102 841.997 273.544 841.997 275.188L841.997 275.469C841.997 278.219 842.662 280.321 843.997 281.766C845.33 283.204 847.224 283.922 849.685 283.922C850.705 283.922 851.716 283.79 852.716 283.516C853.724 283.247 854.708 282.794 855.669 282.157C856.095 281.899 856.482 281.774 856.826 281.782C857.169 281.794 857.443 281.899 857.654 282.094C857.861 282.294 858.001 282.54 858.076 282.829C858.146 283.11 858.115 283.419 857.982 283.751C857.857 284.075 857.595 284.356 857.201 284.594C856.208 285.313 855.037 285.872 853.685 286.266C852.341 286.649 851.005 286.844 849.685 286.844Z" fill="#5c5c5c" fill-rule="evenodd" opacity="1" stroke="none"/>
<path d="M865.573 286.751C864.967 286.751 864.514 286.587 864.214 286.266C863.921 285.934 863.776 285.465 863.776 284.86L863.776 266.11C863.776 265.508 863.921 265.047 864.214 264.735C864.514 264.422 864.952 264.266 865.526 264.266C866.096 264.266 866.542 264.422 866.854 264.735C867.167 265.047 867.323 265.508 867.323 266.11L867.323 269.969L866.839 269.438C867.464 267.7 868.487 266.387 869.917 265.501C871.342 264.618 872.983 264.172 874.839 264.172C876.577 264.172 878.026 264.493 879.182 265.126C880.339 265.751 881.198 266.704 881.76 267.985C882.331 269.258 882.62 270.868 882.62 272.813L882.62 284.86C882.62 285.465 882.464 285.934 882.151 286.266C881.839 286.587 881.393 286.751 880.823 286.751C880.217 286.751 879.76 286.587 879.448 286.266C879.135 285.934 878.979 285.465 878.979 284.86L878.979 273.032C878.979 270.993 878.577 269.501 877.776 268.563C876.983 267.618 875.717 267.141 873.979 267.141C871.967 267.141 870.37 267.766 869.182 269.016C868.003 270.258 867.417 271.915 867.417 273.985L867.417 284.86C867.417 286.122 866.799 286.751 865.573 286.751Z" fill="#5c5c5c" fill-rule="evenodd" opacity="1" stroke="none"/>
<path d="M898.096 286.844C896.385 286.844 894.956 286.536 893.799 285.922C892.643 285.309 891.776 284.407 891.206 283.219C890.643 282.032 890.362 280.587 890.362 278.876L890.362 267.407L887.346 267.407C886.834 267.407 886.444 267.282 886.174 267.032C885.905 266.774 885.768 266.419 885.768 265.969C885.768 265.524 885.905 265.18 886.174 264.938C886.444 264.7 886.834 264.579 887.346 264.579L890.362 264.579L890.362 259.407C890.362 258.805 890.522 258.344 890.846 258.032C891.178 257.719 891.631 257.563 892.206 257.563C892.776 257.563 893.221 257.719 893.534 258.032C893.846 258.344 894.002 258.805 894.002 259.407L894.002 264.579L899.674 264.579C900.182 264.579 900.573 264.7 900.846 264.938C901.116 265.18 901.252 265.524 901.252 265.969C901.252 266.419 901.116 266.774 900.846 267.032C900.573 267.282 900.182 267.407 899.674 267.407L894.002 267.407L894.002 278.516C894.002 280.227 894.362 281.524 895.081 282.407C895.799 283.294 896.971 283.735 898.596 283.735C899.167 283.735 899.651 283.68 900.049 283.563C900.456 283.438 900.792 283.376 901.065 283.376C901.334 283.344 901.557 283.438 901.737 283.657C901.924 283.868 902.018 284.227 902.018 284.735C902.018 285.09 901.948 285.419 901.815 285.719C901.678 286.024 901.444 286.231 901.112 286.344C900.756 286.469 900.284 286.583 899.69 286.688C899.104 286.79 898.573 286.844 898.096 286.844Z" fill="#5c5c5c" fill-rule="evenodd" opacity="1" stroke="none"/>
<path d="M739.715 203.582L480.27 203.582L417.285 271.066L480.27 338.551L739.715 338.551L678.227 271.066L739.715 203.582Z" fill="#9c9c9c" fill-rule="evenodd" opacity="1" stroke="none"/>
<g opacity="1">
<clipPath id="ClipPath_4">
<path d="M406 192L751 192L751 339.676L406 339.676L406 192Z" fill-rule="evenodd"/>
</clipPath>
<g clip-path="url(#ClipPath_4)">
<path d="M739.715 203.582L480.269 203.582L417.285 271.066L480.269 338.551L739.715 338.551L678.227 271.066L739.715 203.582Z" fill="none" fill-rule="evenodd" opacity="1" stroke="#bdbdbd" stroke-linecap="butt" stroke-linejoin="miter" stroke-width="0.749838"/>
</g>
</g>
<path d="M539.943 286.751C539.4 286.751 538.978 286.594 538.677 286.282C538.373 285.969 538.224 285.528 538.224 284.954L538.224 256.204C538.224 255.61 538.373 255.165 538.677 254.86C538.978 254.559 539.4 254.407 539.943 254.407C540.42 254.407 540.802 254.508 541.084 254.704C541.365 254.903 541.623 255.227 541.865 255.672L554.193 278.876L552.849 278.876L565.131 255.672C565.369 255.227 565.623 254.903 565.896 254.704C566.166 254.508 566.556 254.407 567.068 254.407C567.576 254.407 567.978 254.559 568.271 254.86C568.572 255.165 568.724 255.61 568.724 256.204L568.724 284.954C568.724 285.528 568.576 285.969 568.287 286.282C568.006 286.594 567.584 286.751 567.021 286.751C566.478 286.751 566.056 286.594 565.756 286.282C565.451 285.969 565.302 285.528 565.302 284.954L565.302 259.672L566.381 259.672L555.146 280.766C554.935 281.165 554.717 281.446 554.49 281.61C554.26 281.766 553.935 281.844 553.521 281.844C553.103 281.844 552.775 281.758 552.537 281.579C552.295 281.403 552.084 281.133 551.896 280.766L540.521 259.626L541.599 259.626L541.599 284.954C541.599 285.528 541.451 285.969 541.162 286.282C540.881 286.594 540.474 286.751 539.943 286.751Z" fill="#f5f5f5" fill-rule="evenodd" opacity="1" stroke="none"/>
<path d="M582.988 286.844C581.488 286.844 580.144 286.551 578.957 285.969C577.777 285.387 576.839 284.587 576.144 283.563C575.457 282.544 575.113 281.403 575.113 280.141C575.113 278.516 575.523 277.243 576.347 276.313C577.179 275.387 578.543 274.731 580.441 274.344C582.347 273.95 584.949 273.751 588.254 273.751L590.285 273.751L590.285 276.141L588.3 276.141C585.871 276.141 583.961 276.258 582.566 276.485C581.168 276.704 580.195 277.087 579.644 277.626C579.089 278.169 578.816 278.934 578.816 279.922C578.816 281.153 579.242 282.157 580.097 282.938C580.949 283.712 582.113 284.094 583.582 284.094C584.777 284.094 585.832 283.813 586.738 283.251C587.652 282.68 588.371 281.899 588.894 280.907C589.425 279.919 589.691 278.778 589.691 277.485L589.691 272.36C589.691 270.497 589.316 269.153 588.566 268.329C587.816 267.508 586.586 267.094 584.879 267.094C583.824 267.094 582.773 267.231 581.722 267.501C580.679 267.774 579.574 268.204 578.41 268.797C577.98 269.016 577.617 269.09 577.316 269.016C577.023 268.934 576.785 268.774 576.597 268.532C576.418 268.294 576.316 268.016 576.285 267.704C576.254 267.391 576.32 267.087 576.488 266.782C576.652 266.481 576.918 266.243 577.285 266.063C578.597 265.399 579.898 264.919 581.191 264.626C582.48 264.325 583.711 264.172 584.879 264.172C586.773 264.172 588.336 264.481 589.566 265.094C590.793 265.712 591.707 266.641 592.3 267.891C592.902 269.133 593.207 270.727 593.207 272.672L593.207 284.86C593.207 285.465 593.058 285.934 592.769 286.266C592.488 286.587 592.074 286.751 591.535 286.751C590.972 286.751 590.539 286.587 590.238 286.266C589.933 285.934 589.785 285.465 589.785 284.86L589.785 281.36L590.191 281.36C589.949 282.497 589.492 283.469 588.816 284.282C588.136 285.094 587.304 285.727 586.316 286.172C585.324 286.618 584.214 286.844 582.988 286.844Z" fill="#f5f5f5" fill-rule="evenodd" opacity="1" stroke="none"/>
<path d="M601.755 294.844C601.149 294.844 600.696 294.688 600.395 294.376C600.102 294.063 599.958 293.602 599.958 293.001L599.958 266.11C599.958 265.508 600.102 265.047 600.395 264.735C600.696 264.422 601.134 264.266 601.708 264.266C602.309 264.266 602.77 264.422 603.083 264.735C603.395 265.047 603.552 265.508 603.552 266.11L603.552 270.376L603.052 269.751C603.54 268.044 604.493 266.688 605.911 265.688C607.337 264.68 609.04 264.172 611.02 264.172C612.966 264.172 614.665 264.633 616.114 265.547C617.571 266.465 618.696 267.774 619.489 269.469C620.29 271.157 620.692 273.169 620.692 275.501C620.692 277.813 620.29 279.821 619.489 281.516C618.696 283.204 617.583 284.516 616.145 285.454C614.708 286.383 612.997 286.844 611.02 286.844C609.04 286.844 607.341 286.344 605.927 285.344C604.52 284.337 603.559 282.993 603.052 281.313L603.598 281.313L603.598 293.001C603.598 293.602 603.43 294.063 603.098 294.376C602.774 294.688 602.325 294.844 601.755 294.844ZM610.255 283.922C611.637 283.922 612.833 283.594 613.833 282.938C614.833 282.274 615.606 281.309 616.161 280.047C616.723 278.79 617.005 277.274 617.005 275.501C617.005 272.774 616.395 270.688 615.177 269.251C613.966 267.813 612.325 267.094 610.255 267.094C608.911 267.094 607.727 267.419 606.708 268.063C605.684 268.712 604.895 269.657 604.333 270.907C603.778 272.149 603.505 273.68 603.505 275.501C603.505 278.212 604.118 280.294 605.348 281.751C606.575 283.2 608.212 283.922 610.255 283.922Z" fill="#f5f5f5" fill-rule="evenodd" opacity="1" stroke="none"/>
<path d="M466.023 203.582L158.59 203.582L158.59 338.551L466.023 338.551L404.539 271.066L466.023 203.582Z" fill="#5c5c5c" fill-rule="evenodd" opacity="1" stroke="none"/>
<g opacity="1">
<clipPath id="ClipPath_5">
<path d="M147 192L477 192L477 339.676L147 339.676L147 192Z" fill-rule="evenodd"/>
</clipPath>
<g clip-path="url(#ClipPath_5)">
<path d="M466.023 203.582L158.59 203.582L158.59 338.551L466.023 338.551L404.539 271.066L466.023 203.582Z" fill="none" fill-rule="evenodd" opacity="1" stroke="#3a3a3a" stroke-linecap="butt" stroke-linejoin="miter" stroke-width="0.749838"/>
</g>
</g>
<path d="M236.575 286.751C235.97 286.751 235.505 286.579 235.184 286.235C234.872 285.891 234.716 285.419 234.716 284.813L234.716 256.344C234.716 255.712 234.872 255.231 235.184 254.907C235.505 254.575 235.97 254.407 236.575 254.407C237.169 254.407 237.622 254.575 237.934 254.907C238.255 255.231 238.419 255.712 238.419 256.344L238.419 268.766L257.434 268.766L257.434 256.344C257.434 255.712 257.591 255.231 257.903 254.907C258.224 254.575 258.684 254.407 259.278 254.407C259.88 254.407 260.341 254.575 260.653 254.907C260.966 255.231 261.122 255.712 261.122 256.344L261.122 284.813C261.122 285.419 260.966 285.891 260.653 286.235C260.341 286.579 259.88 286.751 259.278 286.751C258.684 286.751 258.224 286.579 257.903 286.235C257.591 285.891 257.434 285.419 257.434 284.813L257.434 271.954L238.419 271.954L238.419 284.813C238.419 285.419 238.267 285.891 237.966 286.235C237.661 286.579 237.2 286.751 236.575 286.751Z" fill="#f5f5f5" fill-rule="evenodd" opacity="1" stroke="none"/>
<path d="M275.344 286.844C273.844 286.844 272.5 286.551 271.313 285.969C270.133 285.387 269.196 284.587 268.5 283.563C267.813 282.544 267.469 281.403 267.469 280.141C267.469 278.516 267.879 277.243 268.703 276.313C269.535 275.387 270.899 274.731 272.797 274.344C274.703 273.95 277.305 273.751 280.61 273.751L282.641 273.751L282.641 276.141L280.656 276.141C278.227 276.141 276.317 276.258 274.922 276.485C273.524 276.704 272.551 277.087 272 277.626C271.446 278.169 271.172 278.934 271.172 279.922C271.172 281.153 271.598 282.157 272.453 282.938C273.305 283.712 274.469 284.094 275.938 284.094C277.133 284.094 278.188 283.813 279.094 283.251C280.008 282.68 280.727 281.899 281.25 280.907C281.781 279.919 282.047 278.778 282.047 277.485L282.047 272.36C282.047 270.497 281.672 269.153 280.922 268.329C280.172 267.508 278.942 267.094 277.235 267.094C276.18 267.094 275.129 267.231 274.078 267.501C273.035 267.774 271.93 268.204 270.766 268.797C270.336 269.016 269.973 269.09 269.672 269.016C269.379 268.934 269.141 268.774 268.953 268.532C268.774 268.294 268.672 268.016 268.641 267.704C268.61 267.391 268.676 267.087 268.844 266.782C269.008 266.481 269.274 266.243 269.641 266.063C270.953 265.399 272.254 264.919 273.547 264.626C274.836 264.325 276.067 264.172 277.235 264.172C279.129 264.172 280.692 264.481 281.922 265.094C283.149 265.712 284.063 266.641 284.656 267.891C285.258 269.133 285.563 270.727 285.563 272.672L285.563 284.86C285.563 285.465 285.414 285.934 285.125 286.266C284.844 286.587 284.43 286.751 283.891 286.751C283.328 286.751 282.895 286.587 282.594 286.266C282.289 285.934 282.141 285.465 282.141 284.86L282.141 281.36L282.547 281.36C282.305 282.497 281.848 283.469 281.172 284.282C280.492 285.094 279.66 285.727 278.672 286.172C277.68 286.618 276.571 286.844 275.344 286.844Z" fill="#f5f5f5" fill-rule="evenodd" opacity="1" stroke="none"/>
<path d="M294.111 286.751C293.505 286.751 293.052 286.587 292.751 286.266C292.458 285.934 292.314 285.465 292.314 284.86L292.314 266.11C292.314 265.508 292.458 265.047 292.751 264.735C293.052 264.422 293.49 264.266 294.064 264.266C294.634 264.266 295.079 264.422 295.392 264.735C295.704 265.047 295.861 265.508 295.861 266.11L295.861 269.969L295.376 269.438C296.001 267.7 297.025 266.387 298.454 265.501C299.88 264.618 301.521 264.172 303.376 264.172C305.115 264.172 306.564 264.493 307.72 265.126C308.876 265.751 309.736 266.704 310.298 267.985C310.868 269.258 311.158 270.868 311.158 272.813L311.158 284.86C311.158 285.465 311.001 285.934 310.689 286.266C310.376 286.587 309.931 286.751 309.361 286.751C308.755 286.751 308.298 286.587 307.986 286.266C307.673 285.934 307.517 285.465 307.517 284.86L307.517 273.032C307.517 270.993 307.115 269.501 306.314 268.563C305.521 267.618 304.255 267.141 302.517 267.141C300.505 267.141 298.908 267.766 297.72 269.016C296.54 270.258 295.954 271.915 295.954 273.985L295.954 284.86C295.954 286.122 295.337 286.751 294.111 286.751Z" fill="#f5f5f5" fill-rule="evenodd" opacity="1" stroke="none"/>
<path d="M326.181 286.844C324.232 286.844 322.528 286.383 321.071 285.454C319.622 284.516 318.497 283.204 317.696 281.516C316.903 279.821 316.509 277.813 316.509 275.501C316.509 273.169 316.903 271.157 317.696 269.469C318.497 267.774 319.622 266.465 321.071 265.547C322.528 264.633 324.232 264.172 326.181 264.172C328.157 264.172 329.853 264.669 331.259 265.657C332.673 266.649 333.622 267.981 334.103 269.657L333.603 269.657L333.603 256.251C333.603 255.657 333.759 255.204 334.071 254.891C334.392 254.571 334.853 254.407 335.446 254.407C336.017 254.407 336.462 254.571 336.775 254.891C337.095 255.204 337.259 255.657 337.259 256.251L337.259 284.86C337.259 285.465 337.107 285.934 336.806 286.266C336.501 286.587 336.048 286.751 335.446 286.751C334.884 286.751 334.439 286.587 334.118 286.266C333.806 285.934 333.65 285.465 333.65 284.86L333.65 280.594L334.15 281.219C333.669 282.93 332.716 284.294 331.29 285.313C329.86 286.337 328.157 286.844 326.181 286.844ZM326.946 283.922C328.298 283.922 329.485 283.594 330.509 282.938C331.528 282.274 332.314 281.309 332.868 280.047C333.419 278.79 333.696 277.274 333.696 275.501C333.696 272.774 333.087 270.688 331.868 269.251C330.657 267.813 329.017 267.094 326.946 267.094C325.571 267.094 324.376 267.419 323.368 268.063C322.368 268.712 321.591 269.657 321.04 270.907C320.485 272.149 320.212 273.68 320.212 275.501C320.212 278.212 320.825 280.294 322.056 281.751C323.282 283.2 324.915 283.922 326.946 283.922Z" fill="#f5f5f5" fill-rule="evenodd" opacity="1" stroke="none"/>
<path d="M350.754 286.844C348.598 286.844 346.945 286.188 345.801 284.876C344.664 283.555 344.098 281.657 344.098 279.188L344.098 256.251C344.098 255.657 344.242 255.204 344.535 254.891C344.836 254.571 345.289 254.407 345.894 254.407C346.465 254.407 346.914 254.571 347.238 254.891C347.57 255.204 347.738 255.657 347.738 256.251L347.738 278.922C347.738 280.547 348.059 281.758 348.707 282.547C349.352 283.34 350.305 283.735 351.566 283.735C351.836 283.735 352.074 283.727 352.285 283.704C352.492 283.672 352.699 283.657 352.91 283.657C353.242 283.626 353.477 283.7 353.613 283.876C353.746 284.055 353.816 284.415 353.816 284.954C353.816 285.497 353.695 285.903 353.457 286.172C353.215 286.442 352.824 286.618 352.285 286.704C352.043 286.735 351.789 286.766 351.519 286.797C351.246 286.829 350.992 286.844 350.754 286.844Z" fill="#f5f5f5" fill-rule="evenodd" opacity="1" stroke="none"/>
<path d="M367.034 286.844C364.729 286.844 362.744 286.387 361.08 285.469C359.412 284.555 358.119 283.258 357.205 281.579C356.287 279.903 355.83 277.891 355.83 275.547C355.83 273.266 356.276 271.282 357.174 269.594C358.08 267.899 359.319 266.571 360.893 265.61C362.463 264.653 364.287 264.172 366.362 264.172C367.83 264.172 369.147 264.422 370.315 264.922C371.491 265.415 372.491 266.122 373.315 267.047C374.135 267.977 374.768 269.102 375.205 270.422C375.643 271.747 375.862 273.231 375.862 274.876C375.862 275.356 375.725 275.712 375.455 275.938C375.182 276.157 374.791 276.266 374.284 276.266L358.627 276.266L358.627 273.891L373.424 273.891L372.705 274.469C372.705 272.856 372.463 271.485 371.987 270.36C371.506 269.235 370.807 268.376 369.893 267.782C368.975 267.18 367.83 266.876 366.455 266.876C364.924 266.876 363.627 267.231 362.565 267.938C361.502 268.637 360.698 269.61 360.159 270.86C359.616 272.102 359.346 273.544 359.346 275.188L359.346 275.469C359.346 278.219 360.01 280.321 361.346 281.766C362.678 283.204 364.573 283.922 367.034 283.922C368.053 283.922 369.065 283.79 370.065 283.516C371.073 283.247 372.057 282.794 373.018 282.157C373.444 281.899 373.83 281.774 374.174 281.782C374.518 281.794 374.791 281.899 375.002 282.094C375.209 282.294 375.35 282.54 375.424 282.829C375.494 283.11 375.463 283.419 375.33 283.751C375.205 284.075 374.944 284.356 374.549 284.594C373.557 285.313 372.385 285.872 371.034 286.266C369.69 286.649 368.354 286.844 367.034 286.844Z" fill="#f5f5f5" fill-rule="evenodd" opacity="1" stroke="none"/>
<path d="M382.968 286.751C382.363 286.751 381.906 286.587 381.593 286.266C381.281 285.934 381.125 285.465 381.125 284.86L381.125 266.11C381.125 265.508 381.269 265.047 381.562 264.735C381.863 264.422 382.3 264.266 382.875 264.266C383.445 264.266 383.89 264.422 384.203 264.735C384.515 265.047 384.671 265.508 384.671 266.11L384.671 269.751L384.218 269.751C384.707 267.981 385.625 266.618 386.968 265.657C388.32 264.7 389.988 264.188 391.968 264.126C392.414 264.094 392.773 264.196 393.046 264.422C393.316 264.641 393.468 265.024 393.5 265.563C393.519 266.075 393.394 266.481 393.125 266.782C392.863 267.087 392.445 267.262 391.875 267.313L391.156 267.407C389.113 267.587 387.546 268.235 386.453 269.36C385.359 270.485 384.812 272.028 384.812 273.985L384.812 284.86C384.812 285.465 384.648 285.934 384.328 286.266C384.015 286.587 383.562 286.751 382.968 286.751Z" fill="#f5f5f5" fill-rule="evenodd" opacity="1" stroke="none"/>
<path d="M158.59 1.125L403.039 1.125L466.023 68.6094L403.039 136.094L158.59 136.094L158.59 1.125Z" fill="#c7c7c7" fill-rule="evenodd" opacity="1" stroke="#bdbdbd" stroke-linecap="butt" stroke-linejoin="miter" stroke-width="0.749838"/>
<path d="M269.834 83.9818C269.177 83.9818 268.67 83.81 268.318 83.4662C267.974 83.1225 267.802 82.6186 267.802 81.9506L267.802 54.2943C267.802 53.6381 267.974 53.1381 268.318 52.7943C268.67 52.4428 269.177 52.2631 269.834 52.2631L278.521 52.2631C283.646 52.2631 287.599 53.6186 290.38 56.3256C293.17 59.0248 294.568 62.9506 294.568 68.1068C294.568 70.6811 294.212 72.9506 293.505 74.9193C292.806 76.8803 291.763 78.5365 290.38 79.8881C289.005 81.2436 287.326 82.2631 285.349 82.9506C283.369 83.6381 281.091 83.9818 278.521 83.9818L269.834 83.9818ZM271.505 80.8256L278.24 80.8256C280.341 80.8256 282.166 80.56 283.709 80.0287C285.248 79.4897 286.537 78.6928 287.568 77.6381C288.607 76.5873 289.384 75.2592 289.896 73.6537C290.404 72.0522 290.662 70.2006 290.662 68.1068C290.662 63.8803 289.623 60.7084 287.552 58.5912C285.49 56.4779 282.384 55.4193 278.24 55.4193L271.505 55.4193L271.505 80.8256Z" fill="#5c5c5c" fill-rule="evenodd" opacity="1" stroke="none"/>
<path d="M307.576 84.3881C306.076 84.3881 304.732 84.0951 303.544 83.5131C302.365 82.9311 301.427 82.1303 300.732 81.1068C300.044 80.0873 299.701 78.9467 299.701 77.685C299.701 76.06 300.111 74.7865 300.935 73.8568C301.767 72.9311 303.13 72.2748 305.029 71.8881C306.935 71.4936 309.537 71.2943 312.841 71.2943L314.873 71.2943L314.873 73.685L312.888 73.685C310.459 73.685 308.548 73.8022 307.154 74.0287C305.755 74.2475 304.783 74.6303 304.232 75.1693C303.677 75.7123 303.404 76.4779 303.404 77.4662C303.404 78.6967 303.83 79.7006 304.685 80.4818C305.537 81.2553 306.701 81.6381 308.169 81.6381C309.365 81.6381 310.419 81.3568 311.326 80.7943C312.24 80.224 312.959 79.4428 313.482 78.4506C314.013 77.4623 314.279 76.3217 314.279 75.0287L314.279 69.9037C314.279 68.0404 313.904 66.6967 313.154 65.8725C312.404 65.0522 311.173 64.6381 309.466 64.6381C308.412 64.6381 307.361 64.7748 306.31 65.0443C305.267 65.3178 304.162 65.7475 302.998 66.3412C302.568 66.56 302.205 66.6342 301.904 66.56C301.611 66.4779 301.373 66.3178 301.185 66.0756C301.005 65.8373 300.904 65.56 300.873 65.2475C300.841 64.935 300.908 64.6303 301.076 64.3256C301.24 64.0248 301.505 63.7865 301.873 63.6068C303.185 62.9428 304.486 62.4623 305.779 62.1693C307.068 61.8686 308.298 61.7162 309.466 61.7162C311.361 61.7162 312.923 62.0248 314.154 62.6381C315.38 63.2553 316.294 64.185 316.888 65.435C317.49 66.6772 317.794 68.2709 317.794 70.2162L317.794 82.4037C317.794 83.0092 317.646 83.4779 317.357 83.81C317.076 84.1303 316.662 84.2943 316.123 84.2943C315.56 84.2943 315.127 84.1303 314.826 83.81C314.521 83.4779 314.373 83.0092 314.373 82.4037L314.373 78.9037L314.779 78.9037C314.537 80.0404 314.08 81.0131 313.404 81.8256C312.724 82.6381 311.892 83.2709 310.904 83.7162C309.912 84.1615 308.802 84.3881 307.576 84.3881Z" fill="#5c5c5c" fill-rule="evenodd" opacity="1" stroke="none"/>
<g opacity="1">
<path d="M333.311 84.3881C331.6 84.3881 330.171 84.0795 329.014 83.4662C327.858 82.8529 326.991 81.9506 326.421 80.7631C325.858 79.5756 325.577 78.1303 325.577 76.4193L325.577 64.9506L322.561 64.9506C322.049 64.9506 321.659 64.8256 321.389 64.5756C321.12 64.3178 320.983 63.9623 320.983 63.5131C320.983 63.0678 321.12 62.724 321.389 62.4818C321.659 62.2436 322.049 62.1225 322.561 62.1225L325.577 62.1225L325.577 56.9506C325.577 56.349 325.737 55.8881 326.061 55.5756C326.393 55.2631 326.846 55.1068 327.421 55.1068C327.991 55.1068 328.436 55.2631 328.749 55.5756C329.061 55.8881 329.217 56.349 329.217 56.9506L329.217 62.1225L334.889 62.1225C335.397 62.1225 335.788 62.2436 336.061 62.4818C336.331 62.724 336.467 63.0678 336.467 63.5131C336.467 63.9623 336.331 64.3178 336.061 64.5756C335.788 64.8256 335.397 64.9506 334.889 64.9506L329.217 64.9506L329.217 76.06C329.217 77.7709 329.577 79.0678 330.296 79.9506C331.014 80.8373 332.186 81.2787 333.811 81.2787C334.381 81.2787 334.866 81.224 335.264 81.1068C335.671 80.9818 336.006 80.9193 336.28 80.9193C336.549 80.8881 336.772 80.9818 336.952 81.2006C337.139 81.4115 337.233 81.7709 337.233 82.2787C337.233 82.6342 337.163 82.9623 337.03 83.2631C336.893 83.5678 336.659 83.7748 336.327 83.8881C335.971 84.0131 335.499 84.1264 334.905 84.2318C334.319 84.3334 333.788 84.3881 333.311 84.3881Z" fill="#5c5c5c" fill-rule="evenodd" opacity="1" stroke="none"/>
<path d="M347.167 84.3881C345.667 84.3881 344.323 84.0951 343.136 83.5131C341.956 82.9311 341.019 82.1303 340.323 81.1068C339.636 80.0873 339.292 78.9467 339.292 77.685C339.292 76.06 339.702 74.7865 340.527 73.8568C341.359 72.9311 342.722 72.2748 344.62 71.8881C346.527 71.4936 349.128 71.2943 352.433 71.2943L354.464 71.2943L354.464 73.685L352.48 73.685C350.05 73.685 348.14 73.8022 346.745 74.0287C345.347 74.2475 344.374 74.6303 343.823 75.1693C343.269 75.7123 342.995 76.4779 342.995 77.4662C342.995 78.6967 343.421 79.7006 344.277 80.4818C345.128 81.2553 346.292 81.6381 347.761 81.6381C348.956 81.6381 350.011 81.3568 350.917 80.7943C351.831 80.224 352.55 79.4428 353.073 78.4506C353.605 77.4623 353.87 76.3217 353.87 75.0287L353.87 69.9037C353.87 68.0404 353.495 66.6967 352.745 65.8725C351.995 65.0522 350.765 64.6381 349.058 64.6381C348.003 64.6381 346.952 64.7748 345.902 65.0443C344.859 65.3178 343.753 65.7475 342.589 66.3412C342.159 66.56 341.796 66.6342 341.495 66.56C341.202 66.4779 340.964 66.3178 340.777 66.0756C340.597 65.8373 340.495 65.56 340.464 65.2475C340.433 64.935 340.499 64.6303 340.667 64.3256C340.831 64.0248 341.097 63.7865 341.464 63.6068C342.777 62.9428 344.077 62.4623 345.37 62.1693C346.659 61.8686 347.89 61.7162 349.058 61.7162C350.952 61.7162 352.515 62.0248 353.745 62.6381C354.972 63.2553 355.886 64.185 356.48 65.435C357.081 66.6772 357.386 68.2709 357.386 70.2162L357.386 82.4037C357.386 83.0092 357.237 83.4779 356.948 83.81C356.667 84.1303 356.253 84.2943 355.714 84.2943C355.152 84.2943 354.718 84.1303 354.417 83.81C354.112 83.4779 353.964 83.0092 353.964 82.4037L353.964 78.9037L354.37 78.9037C354.128 80.0404 353.671 81.0131 352.995 81.8256C352.316 82.6381 351.484 83.2709 350.495 83.7162C349.503 84.1615 348.394 84.3881 347.167 84.3881Z" fill="#5c5c5c" fill-rule="evenodd" opacity="1" stroke="none"/>
</g>
<path d="M417.285 1.125L676.731 1.125L739.715 68.6094L676.731 136.094L417.285 136.094L478.773 68.6094L417.285 1.125Z" fill="#9c9c9c" fill-rule="evenodd" opacity="1" stroke="#bdbdbd" stroke-linecap="butt" stroke-linejoin="miter" stroke-width="0.749838"/>
<path d="M555.106 84.2943C554.531 84.2943 554.078 84.1225 553.746 83.7787C553.422 83.435 553.262 82.9623 553.262 82.3568L553.262 55.4662L543.137 55.4662C542.594 55.4662 542.172 55.3178 541.871 55.0131C541.567 54.7123 541.418 54.3217 541.418 53.8412C541.418 53.3334 541.567 52.9428 541.871 52.6693C542.172 52.3998 542.594 52.2631 543.137 52.2631L567.106 52.2631C567.645 52.2631 568.067 52.3998 568.371 52.6693C568.672 52.9428 568.824 53.3334 568.824 53.8412C568.824 54.3529 568.672 54.7553 568.371 55.0443C568.067 55.3256 567.645 55.4662 567.106 55.4662L556.981 55.4662L556.981 82.3568C556.981 82.9623 556.824 83.435 556.512 83.7787C556.199 84.1225 555.731 84.2943 555.106 84.2943Z" fill="#f5f5f5" fill-rule="evenodd" opacity="1" stroke="none"/>
<path d="M575.521 84.3881C574.021 84.3881 572.677 84.0951 571.489 83.5131C570.31 82.9311 569.372 82.1303 568.677 81.1068C567.989 80.0873 567.646 78.9467 567.646 77.685C567.646 76.06 568.056 74.7865 568.88 73.8568C569.712 72.9311 571.075 72.2748 572.974 71.8881C574.88 71.4936 577.481 71.2943 580.786 71.2943L582.817 71.2943L582.817 73.685L580.833 73.685C578.403 73.685 576.493 73.8022 575.099 74.0287C573.7 74.2475 572.728 74.6303 572.177 75.1693C571.622 75.7123 571.349 76.4779 571.349 77.4662C571.349 78.6967 571.774 79.7006 572.63 80.4818C573.481 81.2553 574.646 81.6381 576.114 81.6381C577.31 81.6381 578.364 81.3568 579.271 80.7943C580.185 80.224 580.903 79.4428 581.427 78.4506C581.958 77.4623 582.224 76.3217 582.224 75.0287L582.224 69.9037C582.224 68.0404 581.849 66.6967 581.099 65.8725C580.349 65.0522 579.118 64.6381 577.411 64.6381C576.356 64.6381 575.306 64.7748 574.255 65.0443C573.212 65.3178 572.106 65.7475 570.942 66.3412C570.513 66.56 570.149 66.6342 569.849 66.56C569.556 66.4779 569.317 66.3178 569.13 66.0756C568.95 65.8373 568.849 65.56 568.817 65.2475C568.786 64.935 568.853 64.6303 569.021 64.3256C569.185 64.0248 569.45 63.7865 569.817 63.6068C571.13 62.9428 572.431 62.4623 573.724 62.1693C575.013 61.8686 576.243 61.7162 577.411 61.7162C579.306 61.7162 580.868 62.0248 582.099 62.6381C583.325 63.2553 584.239 64.185 584.833 65.435C585.435 66.6772 585.739 68.2709 585.739 70.2162L585.739 82.4037C585.739 83.0092 585.591 83.4779 585.302 83.81C585.021 84.1303 584.606 84.2943 584.067 84.2943C583.505 84.2943 583.071 84.1303 582.771 83.81C582.466 83.4779 582.317 83.0092 582.317 82.4037L582.317 78.9037L582.724 78.9037C582.481 80.0404 582.024 81.0131 581.349 81.8256C580.669 82.6381 579.837 83.2709 578.849 83.7162C577.856 84.1615 576.747 84.3881 575.521 84.3881Z" fill="#f5f5f5" fill-rule="evenodd" opacity="1" stroke="none"/>
<path d="M602.162 92.4818C600.568 92.4818 599.01 92.2943 597.49 91.9193C595.979 91.5443 594.607 90.9506 593.381 90.1381C593.025 89.9272 592.795 89.6733 592.693 89.3725C592.588 89.0795 592.561 88.7865 592.615 88.4975C592.678 88.2162 592.811 87.9584 593.022 87.7318C593.24 87.5131 593.49 87.3725 593.772 87.31C594.053 87.2475 594.342 87.2943 594.647 87.4506C595.967 88.2514 597.229 88.8022 598.428 89.1068C599.623 89.4076 600.807 89.56 601.975 89.56C604.107 89.56 605.725 88.9858 606.818 87.8412C607.912 86.7045 608.459 85.06 608.459 82.9037L608.459 77.8256L608.912 77.8256C608.451 79.5678 607.494 80.9467 606.037 81.9662C604.588 82.9779 602.889 83.4818 600.943 83.4818C598.932 83.4818 597.193 83.0287 595.725 82.1225C594.256 81.2084 593.119 79.9272 592.318 78.2787C591.525 76.6225 591.131 74.7162 591.131 72.56C591.131 70.935 591.354 69.4584 591.803 68.1225C592.26 66.7904 592.916 65.6537 593.772 64.7162C594.623 63.7709 595.654 63.0365 596.865 62.5131C598.084 61.9818 599.443 61.7162 600.943 61.7162C602.92 61.7162 604.631 62.224 606.068 63.2318C607.506 64.2318 608.436 65.5873 608.865 67.2943L608.412 67.8256L608.412 63.6537C608.412 63.0522 608.568 62.5912 608.881 62.2787C609.193 61.9662 609.635 61.81 610.209 61.81C610.811 61.81 611.26 61.9662 611.553 62.2787C611.854 62.5912 612.006 63.0522 612.006 63.6537L612.006 82.4037C612.006 85.7358 611.17 88.2475 609.506 89.935C607.85 91.6303 605.4 92.4818 602.162 92.4818ZM601.615 80.5131C603.029 80.5131 604.244 80.1967 605.256 79.56C606.275 78.9154 607.061 77.9936 607.615 76.7943C608.178 75.5873 608.459 74.1772 608.459 72.56C608.459 70.1342 607.842 68.2084 606.615 66.7787C605.385 65.3529 603.717 64.6381 601.615 64.6381C600.24 64.6381 599.041 64.9623 598.022 65.6068C596.998 66.2553 596.213 67.1693 595.662 68.3568C595.107 69.5365 594.834 70.935 594.834 72.56C594.834 74.9897 595.447 76.9193 596.678 78.3568C597.904 79.7943 599.553 80.5131 601.615 80.5131Z" fill="#f5f5f5" fill-rule="evenodd" opacity="1" stroke="none"/>
<path d="M690.977 1.125L998.41 1.125L998.41 136.094L690.977 136.094L752.461 68.6094L690.977 1.125Z" fill="#5c5c5c" fill-rule="evenodd" opacity="1" stroke="#3a3a3a" stroke-linecap="butt" stroke-linejoin="miter" stroke-width="0.749838"/>
<path d="M777.771 84.2943C777.165 84.2943 776.7 84.1225 776.38 83.7787C776.068 83.435 775.911 82.9623 775.911 82.3568L775.911 54.1537C775.911 53.5287 776.075 53.06 776.411 52.7475C776.743 52.4272 777.208 52.2631 777.802 52.2631L788.474 52.2631C791.857 52.2631 794.462 53.06 796.286 54.6537C798.118 56.2397 799.036 58.5053 799.036 61.4506C799.036 63.3061 798.622 64.9154 797.802 66.2787C796.978 67.6459 795.771 68.6811 794.177 69.3881C792.591 70.0873 790.693 70.435 788.474 70.435L788.927 69.8568L789.818 69.8568C790.982 69.8568 791.997 70.1615 792.864 70.7631C793.739 71.3568 794.536 72.3178 795.255 73.6381L799.583 81.685C799.821 82.1029 799.931 82.5131 799.911 82.9193C799.9 83.3256 799.759 83.6615 799.489 83.9193C799.216 84.1693 798.825 84.2943 798.318 84.2943C797.806 84.2943 797.384 84.1733 797.052 83.935C796.728 83.6967 796.446 83.3529 796.208 82.9037L791.302 73.81C790.614 72.5287 789.818 71.6693 788.911 71.2318C788.013 70.7943 786.833 70.5756 785.364 70.5756L779.614 70.5756L779.614 82.3568C779.614 82.9623 779.462 83.435 779.161 83.7787C778.857 84.1225 778.396 84.2943 777.771 84.2943ZM779.614 67.6537L787.927 67.6537C790.384 67.6537 792.243 67.1381 793.505 66.1068C794.763 65.0678 795.396 63.5131 795.396 61.4506C795.396 59.4428 794.763 57.9193 793.505 56.8881C792.243 55.849 790.384 55.3256 787.927 55.3256L779.614 55.3256L779.614 67.6537Z" fill="#f5f5f5" fill-rule="evenodd" opacity="1" stroke="none"/>
<path d="M814.874 84.3881C812.57 84.3881 810.585 83.9311 808.921 83.0131C807.253 82.099 805.96 80.8022 805.046 79.1225C804.128 77.4467 803.671 75.435 803.671 73.0912C803.671 70.81 804.116 68.8256 805.015 67.1381C805.921 65.4428 807.159 64.1147 808.734 63.1537C810.304 62.1967 812.128 61.7162 814.202 61.7162C815.671 61.7162 816.987 61.9662 818.155 62.4662C819.331 62.9584 820.331 63.6654 821.155 64.5912C821.976 65.5209 822.609 66.6459 823.046 67.9662C823.484 69.2904 823.702 70.7748 823.702 72.4193C823.702 72.8998 823.566 73.2553 823.296 73.4818C823.023 73.7006 822.632 73.81 822.124 73.81L806.468 73.81L806.468 71.435L821.265 71.435L820.546 72.0131C820.546 70.3998 820.304 69.0287 819.827 67.9037C819.347 66.7787 818.648 65.9193 817.734 65.3256C816.816 64.724 815.671 64.4193 814.296 64.4193C812.765 64.4193 811.468 64.7748 810.405 65.4818C809.343 66.1811 808.538 67.1537 807.999 68.4037C807.456 69.6459 807.187 71.0873 807.187 72.7318L807.187 73.0131C807.187 75.7631 807.851 77.8647 809.187 79.31C810.519 80.7475 812.413 81.4662 814.874 81.4662C815.894 81.4662 816.905 81.3334 817.905 81.06C818.913 80.7904 819.898 80.3373 820.859 79.7006C821.284 79.4428 821.671 79.3178 822.015 79.3256C822.359 79.3373 822.632 79.4428 822.843 79.6381C823.05 79.8373 823.191 80.0834 823.265 80.3725C823.335 80.6537 823.304 80.9623 823.171 81.2943C823.046 81.6186 822.784 81.8998 822.39 82.1381C821.398 82.8568 820.226 83.4154 818.874 83.81C817.53 84.1928 816.195 84.3881 814.874 84.3881Z" fill="#f5f5f5" fill-rule="evenodd" opacity="1" stroke="none"/>
<path d="M830.762 84.2943C830.157 84.2943 829.704 84.1303 829.403 83.81C829.11 83.4779 828.965 83.0092 828.965 82.4037L828.965 63.6537C828.965 63.0522 829.11 62.5912 829.403 62.2787C829.704 61.9662 830.141 61.81 830.715 61.81C831.286 61.81 831.731 61.9662 832.043 62.2787C832.356 62.5912 832.512 63.0522 832.512 63.6537L832.512 67.5131L832.028 66.9818C832.653 65.2436 833.676 63.9311 835.106 63.0443C836.532 62.1615 838.172 61.7162 840.028 61.7162C841.766 61.7162 843.215 62.0365 844.372 62.6693C845.528 63.2943 846.387 64.2475 846.95 65.5287C847.52 66.8022 847.809 68.4115 847.809 70.3568L847.809 82.4037C847.809 83.0092 847.653 83.4779 847.34 83.81C847.028 84.1303 846.583 84.2943 846.012 84.2943C845.407 84.2943 844.95 84.1303 844.637 83.81C844.325 83.4779 844.168 83.0092 844.168 82.4037L844.168 70.5756C844.168 68.5365 843.766 67.0443 842.965 66.1068C842.172 65.1615 840.907 64.685 839.168 64.685C837.157 64.685 835.559 65.31 834.372 66.56C833.192 67.8022 832.606 69.4584 832.606 71.5287L832.606 82.4037C832.606 83.6654 831.989 84.2943 830.762 84.2943Z" fill="#f5f5f5" fill-rule="evenodd" opacity="1" stroke="none"/>
<path d="M862.832 84.3881C860.883 84.3881 859.18 83.9272 857.723 82.9975C856.274 82.06 855.149 80.7475 854.348 79.06C853.555 77.3647 853.16 75.3568 853.16 73.0443C853.16 70.7123 853.555 68.7006 854.348 67.0131C855.149 65.3178 856.274 64.0092 857.723 63.0912C859.18 62.1772 860.883 61.7162 862.832 61.7162C864.809 61.7162 866.504 62.2123 867.91 63.2006C869.324 64.1928 870.274 65.5248 870.754 67.2006L870.254 67.2006L870.254 53.7943C870.254 53.2006 870.41 52.7475 870.723 52.435C871.043 52.1147 871.504 51.9506 872.098 51.9506C872.668 51.9506 873.114 52.1147 873.426 52.435C873.746 52.7475 873.91 53.2006 873.91 53.7943L873.91 82.4037C873.91 83.0092 873.758 83.4779 873.457 83.81C873.153 84.1303 872.699 84.2943 872.098 84.2943C871.535 84.2943 871.09 84.1303 870.77 83.81C870.457 83.4779 870.301 83.0092 870.301 82.4037L870.301 78.1381L870.801 78.7631C870.321 80.474 869.367 81.8373 867.942 82.8568C866.512 83.8803 864.809 84.3881 862.832 84.3881ZM863.598 81.4662C864.949 81.4662 866.137 81.1381 867.16 80.4818C868.18 79.8178 868.965 78.8529 869.52 77.5912C870.071 76.3334 870.348 74.8178 870.348 73.0443C870.348 70.3178 869.739 68.2318 868.52 66.7943C867.309 65.3568 865.668 64.6381 863.598 64.6381C862.223 64.6381 861.028 64.9623 860.02 65.6068C859.02 66.2553 858.242 67.2006 857.692 68.4506C857.137 69.6928 856.864 71.224 856.864 73.0443C856.864 75.7553 857.477 77.8373 858.707 79.2943C859.934 80.7436 861.567 81.4662 863.598 81.4662Z" fill="#f5f5f5" fill-rule="evenodd" opacity="1" stroke="none"/>
<path d="M890.593 84.3881C888.288 84.3881 886.304 83.9311 884.64 83.0131C882.972 82.099 881.679 80.8022 880.765 79.1225C879.847 77.4467 879.39 75.435 879.39 73.0912C879.39 70.81 879.835 68.8256 880.733 67.1381C881.64 65.4428 882.878 64.1147 884.452 63.1537C886.023 62.1967 887.847 61.7162 889.921 61.7162C891.39 61.7162 892.706 61.9662 893.874 62.4662C895.05 62.9584 896.05 63.6654 896.874 64.5912C897.694 65.5209 898.327 66.6459 898.765 67.9662C899.202 69.2904 899.421 70.7748 899.421 72.4193C899.421 72.8998 899.284 73.2553 899.015 73.4818C898.741 73.7006 898.351 73.81 897.843 73.81L882.187 73.81L882.187 71.435L896.983 71.435L896.265 72.0131C896.265 70.3998 896.023 69.0287 895.546 67.9037C895.065 66.7787 894.366 65.9193 893.452 65.3256C892.534 64.724 891.39 64.4193 890.015 64.4193C888.483 64.4193 887.187 64.7748 886.124 65.4818C885.062 66.1811 884.257 67.1537 883.718 68.4037C883.175 69.6459 882.905 71.0873 882.905 72.7318L882.905 73.0131C882.905 75.7631 883.569 77.8647 884.905 79.31C886.237 80.7475 888.132 81.4662 890.593 81.4662C891.612 81.4662 892.624 81.3334 893.624 81.06C894.632 80.7904 895.616 80.3373 896.577 79.7006C897.003 79.4428 897.39 79.3178 897.733 79.3256C898.077 79.3373 898.351 79.4428 898.562 79.6381C898.769 79.8373 898.909 80.0834 898.983 80.3725C899.054 80.6537 899.023 80.9623 898.89 81.2943C898.765 81.6186 898.503 81.8998 898.108 82.1381C897.116 82.8568 895.944 83.4154 894.593 83.81C893.249 84.1928 891.913 84.3881 890.593 84.3881Z" fill="#f5f5f5" fill-rule="evenodd" opacity="1" stroke="none"/>
<path d="M906.528 84.2943C905.922 84.2943 905.465 84.1303 905.153 83.81C904.84 83.4779 904.684 83.0092 904.684 82.4037L904.684 63.6537C904.684 63.0522 904.828 62.5912 905.121 62.2787C905.422 61.9662 905.86 61.81 906.434 61.81C907.004 61.81 907.45 61.9662 907.762 62.2787C908.075 62.5912 908.231 63.0522 908.231 63.6537L908.231 67.2943L907.778 67.2943C908.266 65.5248 909.184 64.1615 910.528 63.2006C911.879 62.2436 913.547 61.7318 915.528 61.6693C915.973 61.6381 916.332 61.7397 916.606 61.9662C916.875 62.185 917.028 62.5678 917.059 63.1068C917.078 63.6186 916.953 64.0248 916.684 64.3256C916.422 64.6303 916.004 64.8061 915.434 64.8568L914.715 64.9506C912.672 65.1303 911.106 65.7787 910.012 66.9037C908.918 68.0287 908.371 69.5717 908.371 71.5287L908.371 82.4037C908.371 83.0092 908.207 83.4779 907.887 83.81C907.575 84.1303 907.121 84.2943 906.528 84.2943Z" fill="#f5f5f5" fill-rule="evenodd" opacity="1" stroke="none"/>
</g>
</svg>
